<svg width="1328" height="1256" viewBox="0 0 1328 1256" fill="none" xmlns="http://www.w3.org/2000/svg">
<g clip-path="url(#clip0_13_91)">
<rect width="1328" height="1256" fill="#D7DFE5"/>
<path fill-rule="evenodd" clip-rule="evenodd" d="M1074.01 17.1968C1169.43 28.847 1228.75 115.07 1283.28 194.241C1331.41 264.118 1376.36 343.149 1355.07 425.281C1334.33 505.302 1256.6 549.769 1181.94 585.243C1107.94 620.398 1028.59 642.424 950.569 617.454C855.568 587.05 759.848 534.659 728.25 440.048C693.575 336.223 719.785 218.644 789.075 133.904C857.429 50.3096 966.821 4.11045 1074.01 17.1968Z" fill="#18ACEB"/>
<path fill-rule="evenodd" clip-rule="evenodd" d="M565.363 636.655C619.4 662.262 657.96 714.467 679.632 770.199C699.818 822.107 689.423 878.848 680.951 933.896C673.198 984.275 657.563 1031.25 632.613 1075.7C604.866 1125.14 580.361 1183.07 528.387 1205.7C476.033 1228.5 417.049 1204.69 360.957 1194C304.216 1183.18 243.856 1179.36 199.046 1142.91C152.449 1105 124.559 1048.59 110.434 990.205C96.2334 931.505 101.349 870.603 119.211 812.912C137.634 753.409 161.774 690.361 213.852 656.185C264.919 622.672 331.01 637.285 391.998 633.897C450.897 630.624 512.055 611.394 565.363 636.655Z" fill="#18ACEB"/>
<path d="M175.765 176.892C175.765 170.636 177.207 165.024 180.089 160.056C183.033 155.088 186.989 151.224 191.957 148.464C196.987 145.643 202.476 144.232 208.425 144.232C215.233 144.232 221.275 145.919 226.549 149.292C231.885 152.604 235.749 157.327 238.141 163.46H225.537C223.881 160.087 221.581 157.572 218.637 155.916C215.693 154.26 212.289 153.432 208.425 153.432C204.193 153.432 200.421 154.383 197.109 156.284C193.797 158.185 191.191 160.915 189.289 164.472C187.449 168.029 186.529 172.169 186.529 176.892C186.529 181.615 187.449 185.755 189.289 189.312C191.191 192.869 193.797 195.629 197.109 197.592C200.421 199.493 204.193 200.444 208.425 200.444C212.289 200.444 215.693 199.616 218.637 197.96C221.581 196.304 223.881 193.789 225.537 190.416H238.141C235.749 196.549 231.885 201.272 226.549 204.584C221.275 207.896 215.233 209.552 208.425 209.552C202.415 209.552 196.925 208.172 191.957 205.412C186.989 202.591 183.033 198.696 180.089 193.728C177.207 188.76 175.765 183.148 175.765 176.892ZM246.922 183.424C246.922 178.333 247.964 173.825 250.05 169.9C252.196 165.975 255.079 162.939 258.698 160.792C262.378 158.584 266.426 157.48 270.842 157.48C274.828 157.48 278.294 158.277 281.238 159.872C284.243 161.405 286.635 163.337 288.414 165.668V158.308H298.994V209H288.414V201.456C286.635 203.848 284.212 205.841 281.146 207.436C278.079 209.031 274.583 209.828 270.658 209.828C266.303 209.828 262.316 208.724 258.698 206.516C255.079 204.247 252.196 201.119 250.05 197.132C247.964 193.084 246.922 188.515 246.922 183.424ZM288.414 183.608C288.414 180.112 287.678 177.076 286.206 174.5C284.795 171.924 282.924 169.961 280.594 168.612C278.263 167.263 275.748 166.588 273.05 166.588C270.351 166.588 267.836 167.263 265.506 168.612C263.175 169.9 261.274 171.832 259.802 174.408C258.391 176.923 257.686 179.928 257.686 183.424C257.686 186.92 258.391 189.987 259.802 192.624C261.274 195.261 263.175 197.285 265.506 198.696C267.898 200.045 270.412 200.72 273.05 200.72C275.748 200.72 278.263 200.045 280.594 198.696C282.924 197.347 284.795 195.384 286.206 192.808C287.678 190.171 288.414 187.104 288.414 183.608ZM323.257 140.92V209H312.769V140.92H323.257ZM333.531 183.608C333.531 178.395 334.574 173.825 336.659 169.9C338.806 165.913 341.75 162.847 345.491 160.7C349.232 158.553 353.526 157.48 358.371 157.48C364.504 157.48 369.564 158.952 373.551 161.896C377.599 164.779 380.328 168.919 381.739 174.316H370.423C369.503 171.801 368.031 169.839 366.007 168.428C363.983 167.017 361.438 166.312 358.371 166.312C354.078 166.312 350.643 167.845 348.067 170.912C345.552 173.917 344.295 178.149 344.295 183.608C344.295 189.067 345.552 193.329 348.067 196.396C350.643 199.463 354.078 200.996 358.371 200.996C364.443 200.996 368.46 198.328 370.423 192.992H381.739C380.267 198.144 377.507 202.253 373.459 205.32C369.411 208.325 364.382 209.828 358.371 209.828C353.526 209.828 349.232 208.755 345.491 206.608C341.75 204.4 338.806 201.333 336.659 197.408C334.574 193.421 333.531 188.821 333.531 183.608ZM438.099 158.308V209H427.611V203.02C425.955 205.105 423.778 206.761 421.079 207.988C418.442 209.153 415.62 209.736 412.615 209.736C408.628 209.736 405.04 208.908 401.851 207.252C398.723 205.596 396.239 203.143 394.399 199.892C392.62 196.641 391.731 192.716 391.731 188.116V158.308H402.127V186.552C402.127 191.091 403.262 194.587 405.531 197.04C407.8 199.432 410.898 200.628 414.823 200.628C418.748 200.628 421.846 199.432 424.115 197.04C426.446 194.587 427.611 191.091 427.611 186.552V158.308H438.099ZM462.425 140.92V209H451.937V140.92H462.425ZM472.699 183.424C472.699 178.333 473.742 173.825 475.827 169.9C477.974 165.975 480.856 162.939 484.475 160.792C488.155 158.584 492.203 157.48 496.619 157.48C500.606 157.48 504.071 158.277 507.015 159.872C510.02 161.405 512.412 163.337 514.191 165.668V158.308H524.771V209H514.191V201.456C512.412 203.848 509.99 205.841 506.923 207.436C503.856 209.031 500.36 209.828 496.435 209.828C492.08 209.828 488.094 208.724 484.475 206.516C480.856 204.247 477.974 201.119 475.827 197.132C473.742 193.084 472.699 188.515 472.699 183.424ZM514.191 183.608C514.191 180.112 513.455 177.076 511.983 174.5C510.572 171.924 508.702 169.961 506.371 168.612C504.04 167.263 501.526 166.588 498.827 166.588C496.128 166.588 493.614 167.263 491.283 168.612C488.952 169.9 487.051 171.832 485.579 174.408C484.168 176.923 483.463 179.928 483.463 183.424C483.463 186.92 484.168 189.987 485.579 192.624C487.051 195.261 488.952 197.285 491.283 198.696C493.675 200.045 496.19 200.72 498.827 200.72C501.526 200.72 504.04 200.045 506.371 198.696C508.702 197.347 510.572 195.384 511.983 192.808C513.455 190.171 514.191 187.104 514.191 183.608ZM550.782 166.864V194.924C550.782 196.825 551.212 198.205 552.07 199.064C552.99 199.861 554.524 200.26 556.67 200.26H563.11V209H554.83C550.108 209 546.489 207.896 543.974 205.688C541.46 203.48 540.202 199.892 540.202 194.924V166.864H534.222V158.308H540.202V145.704H550.782V158.308H563.11V166.864H550.782ZM594.765 209.828C589.981 209.828 585.657 208.755 581.793 206.608C577.929 204.4 574.893 201.333 572.685 197.408C570.477 193.421 569.373 188.821 569.373 183.608C569.373 178.456 570.508 173.887 572.777 169.9C575.046 165.913 578.144 162.847 582.069 160.7C585.994 158.553 590.38 157.48 595.225 157.48C600.07 157.48 604.456 158.553 608.381 160.7C612.306 162.847 615.404 165.913 617.673 169.9C619.942 173.887 621.077 178.456 621.077 183.608C621.077 188.76 619.912 193.329 617.581 197.316C615.25 201.303 612.061 204.4 608.013 206.608C604.026 208.755 599.61 209.828 594.765 209.828ZM594.765 200.72C597.464 200.72 599.978 200.076 602.309 198.788C604.701 197.5 606.633 195.568 608.105 192.992C609.577 190.416 610.313 187.288 610.313 183.608C610.313 179.928 609.608 176.831 608.197 174.316C606.786 171.74 604.916 169.808 602.585 168.52C600.254 167.232 597.74 166.588 595.041 166.588C592.342 166.588 589.828 167.232 587.497 168.52C585.228 169.808 583.418 171.74 582.069 174.316C580.72 176.831 580.045 179.928 580.045 183.608C580.045 189.067 581.425 193.299 584.185 196.304C587.006 199.248 590.533 200.72 594.765 200.72ZM641.933 165.668C643.466 163.092 645.49 161.099 648.005 159.688C650.581 158.216 653.617 157.48 657.113 157.48V168.336H654.445C650.336 168.336 647.208 169.379 645.061 171.464C642.976 173.549 641.933 177.168 641.933 182.32V209H631.445V158.308H641.933V165.668ZM758.732 158.308L743 209H731.96L721.748 171.556L711.536 209H700.496L684.672 158.308H695.344L705.924 199.064L716.688 158.308H727.636L737.94 198.88L748.428 158.308H758.732ZM771.906 151.592C770.005 151.592 768.41 150.948 767.122 149.66C765.834 148.372 765.19 146.777 765.19 144.876C765.19 142.975 765.834 141.38 767.122 140.092C768.41 138.804 770.005 138.16 771.906 138.16C773.746 138.16 775.31 138.804 776.598 140.092C777.886 141.38 778.53 142.975 778.53 144.876C778.53 146.777 777.886 148.372 776.598 149.66C775.31 150.948 773.746 151.592 771.906 151.592ZM777.058 158.308V209H766.57V158.308H777.058ZM803.064 166.864V194.924C803.064 196.825 803.493 198.205 804.352 199.064C805.272 199.861 806.805 200.26 808.952 200.26H815.392V209H807.112C802.389 209 798.77 207.896 796.256 205.688C793.741 203.48 792.484 199.892 792.484 194.924V166.864H786.504V158.308H792.484V145.704H803.064V158.308H815.392V166.864H803.064ZM851.278 157.48C855.142 157.48 858.577 158.308 861.582 159.964C864.649 161.62 867.041 164.073 868.758 167.324C870.537 170.575 871.426 174.5 871.426 179.1V209H861.03V180.664C861.03 176.125 859.896 172.66 857.626 170.268C855.357 167.815 852.26 166.588 848.334 166.588C844.409 166.588 841.281 167.815 838.95 170.268C836.681 172.66 835.546 176.125 835.546 180.664V209H825.058V140.92H835.546V164.196C837.325 162.049 839.564 160.393 842.262 159.228C845.022 158.063 848.028 157.48 851.278 157.48ZM919.191 165.668C920.724 163.092 922.748 161.099 925.263 159.688C927.839 158.216 930.875 157.48 934.371 157.48V168.336H931.703C927.593 168.336 924.465 169.379 922.319 171.464C920.233 173.549 919.191 177.168 919.191 182.32V209H908.703V158.308H919.191V165.668ZM990.471 182.412C990.471 184.313 990.349 186.031 990.103 187.564H951.371C951.678 191.612 953.181 194.863 955.879 197.316C958.578 199.769 961.89 200.996 965.815 200.996C971.458 200.996 975.445 198.635 977.775 193.912H989.091C987.558 198.573 984.767 202.407 980.719 205.412C976.733 208.356 971.765 209.828 965.815 209.828C960.97 209.828 956.615 208.755 952.751 206.608C948.949 204.4 945.943 201.333 943.735 197.408C941.589 193.421 940.515 188.821 940.515 183.608C940.515 178.395 941.558 173.825 943.643 169.9C945.79 165.913 948.765 162.847 952.567 160.7C956.431 158.553 960.847 157.48 965.815 157.48C970.599 157.48 974.862 158.523 978.603 160.608C982.345 162.693 985.258 165.637 987.343 169.44C989.429 173.181 990.471 177.505 990.471 182.412ZM979.523 179.1C979.462 175.236 978.082 172.139 975.383 169.808C972.685 167.477 969.342 166.312 965.355 166.312C961.737 166.312 958.639 167.477 956.063 169.808C953.487 172.077 951.954 175.175 951.463 179.1H979.523ZM997.297 183.424C997.297 178.333 998.339 173.825 1000.42 169.9C1002.57 165.975 1005.45 162.939 1009.07 160.792C1012.75 158.584 1016.8 157.48 1021.22 157.48C1025.2 157.48 1028.67 158.277 1031.61 159.872C1034.62 161.405 1037.01 163.337 1038.79 165.668V158.308H1049.37V209H1038.79V201.456C1037.01 203.848 1034.59 205.841 1031.52 207.436C1028.45 209.031 1024.96 209.828 1021.03 209.828C1016.68 209.828 1012.69 208.724 1009.07 206.516C1005.45 204.247 1002.57 201.119 1000.42 197.132C998.339 193.084 997.297 188.515 997.297 183.424ZM1038.79 183.608C1038.79 180.112 1038.05 177.076 1036.58 174.5C1035.17 171.924 1033.3 169.961 1030.97 168.612C1028.64 167.263 1026.12 166.588 1023.42 166.588C1020.73 166.588 1018.21 167.263 1015.88 168.612C1013.55 169.9 1011.65 171.832 1010.18 174.408C1008.77 176.923 1008.06 179.928 1008.06 183.424C1008.06 186.92 1008.77 189.987 1010.18 192.624C1011.65 195.261 1013.55 197.285 1015.88 198.696C1018.27 200.045 1020.79 200.72 1023.42 200.72C1026.12 200.72 1028.64 200.045 1030.97 198.696C1033.3 197.347 1035.17 195.384 1036.58 192.808C1038.05 190.171 1038.79 187.104 1038.79 183.608ZM1059.65 183.608C1059.65 178.395 1060.69 173.825 1062.78 169.9C1064.92 165.913 1067.87 162.847 1071.61 160.7C1075.35 158.553 1079.64 157.48 1084.49 157.48C1090.62 157.48 1095.68 158.952 1099.67 161.896C1103.72 164.779 1106.45 168.919 1107.86 174.316H1096.54C1095.62 171.801 1094.15 169.839 1092.12 168.428C1090.1 167.017 1087.55 166.312 1084.49 166.312C1080.19 166.312 1076.76 167.845 1074.18 170.912C1071.67 173.917 1070.41 178.149 1070.41 183.608C1070.41 189.067 1071.67 193.329 1074.18 196.396C1076.76 199.463 1080.19 200.996 1084.49 200.996C1090.56 200.996 1094.58 198.328 1096.54 192.992H1107.86C1106.38 198.144 1103.62 202.253 1099.58 205.32C1095.53 208.325 1090.5 209.828 1084.49 209.828C1079.64 209.828 1075.35 208.755 1071.61 206.608C1067.87 204.4 1064.92 201.333 1062.78 197.408C1060.69 193.421 1059.65 188.821 1059.65 183.608ZM1130.54 166.864V194.924C1130.54 196.825 1130.97 198.205 1131.83 199.064C1132.75 199.861 1134.29 200.26 1136.43 200.26H1142.87V209H1134.59C1129.87 209 1126.25 207.896 1123.74 205.688C1121.22 203.48 1119.96 199.892 1119.96 194.924V166.864H1113.98V158.308H1119.96V145.704H1130.54V158.308H1142.87V166.864H1130.54Z" fill="#292E33"/>
<g filter="url(#filter0_d_13_91)">
<rect x="100" y="366" width="457" height="768" rx="20" fill="#1F2326"/>
</g>
<path d="M101 714C101 696.327 115.327 682 133 682H525C542.673 682 557 696.327 557 714V1114C557 1125.05 548.046 1134 537 1134H121C109.954 1134 101 1125.05 101 1114V714Z" fill="#292E33"/>
<g filter="url(#filter1_dd_13_91)">
<rect x="236" y="1026" width="80" height="80" rx="8" fill="#5E6266"/>
</g>
<path d="M286.234 1067.45C286.234 1072.52 285.367 1076.3 283.633 1078.77C281.898 1081.23 279.188 1082.47 275.5 1082.47C271.859 1082.47 269.164 1081.27 267.414 1078.86C265.664 1076.44 264.758 1072.83 264.695 1068.03V1062.24C264.695 1057.23 265.562 1053.5 267.297 1051.06C269.031 1048.62 271.75 1047.41 275.453 1047.41C279.125 1047.41 281.828 1048.59 283.562 1050.95C285.297 1053.29 286.188 1056.91 286.234 1061.82V1067.45ZM281.898 1061.52C281.898 1057.84 281.383 1055.17 280.352 1053.5C279.32 1051.81 277.688 1050.97 275.453 1050.97C273.234 1050.97 271.617 1051.8 270.602 1053.48C269.586 1055.15 269.062 1057.72 269.031 1061.19V1068.12C269.031 1071.81 269.562 1074.54 270.625 1076.3C271.703 1078.05 273.328 1078.93 275.5 1078.93C277.641 1078.93 279.227 1078.1 280.258 1076.45C281.305 1074.79 281.852 1072.18 281.898 1068.62V1061.52Z" fill="#E6ECF2"/>
<g filter="url(#filter2_dd_13_91)">
<rect x="132" y="1026" width="80" height="80" rx="8" fill="#5E6266"/>
</g>
<path d="M168.375 1079.73C168.375 1078.98 168.594 1078.35 169.031 1077.85C169.484 1077.35 170.156 1077.1 171.047 1077.1C171.938 1077.1 172.609 1077.35 173.062 1077.85C173.531 1078.35 173.766 1078.98 173.766 1079.73C173.766 1080.45 173.531 1081.05 173.062 1081.53C172.609 1082.02 171.938 1082.26 171.047 1082.26C170.156 1082.26 169.484 1082.02 169.031 1081.53C168.594 1081.05 168.375 1080.45 168.375 1079.73Z" fill="#E6ECF2"/>
<g filter="url(#filter3_dd_13_91)">
<rect x="340" y="922" width="80" height="80" rx="8" fill="#5E6266"/>
</g>
<path d="M387.453 963C386.547 964.078 385.461 964.945 384.195 965.602C382.945 966.258 381.57 966.586 380.07 966.586C378.102 966.586 376.383 966.102 374.914 965.133C373.461 964.164 372.336 962.805 371.539 961.055C370.742 959.289 370.344 957.344 370.344 955.219C370.344 952.938 370.773 950.883 371.633 949.055C372.508 947.227 373.742 945.828 375.336 944.859C376.93 943.891 378.789 943.406 380.914 943.406C384.289 943.406 386.945 944.672 388.883 947.203C390.836 949.719 391.812 953.156 391.812 957.516V958.781C391.812 965.422 390.5 970.273 387.875 973.336C385.25 976.383 381.289 977.945 375.992 978.023H375.148V974.367H376.062C379.641 974.305 382.391 973.375 384.312 971.578C386.234 969.766 387.281 966.906 387.453 963ZM380.773 963C382.227 963 383.562 962.555 384.781 961.664C386.016 960.773 386.914 959.672 387.477 958.359V956.625C387.477 953.781 386.859 951.469 385.625 949.688C384.391 947.906 382.828 947.016 380.938 947.016C379.031 947.016 377.5 947.75 376.344 949.219C375.188 950.672 374.609 952.594 374.609 954.984C374.609 957.312 375.164 959.234 376.273 960.75C377.398 962.25 378.898 963 380.773 963Z" fill="#E6ECF2"/>
<g filter="url(#filter4_dd_13_91)">
<rect x="340" y="1026" width="80" height="80" rx="8" fill="#5E6266"/>
</g>
<rect x="359" y="1055" width="42" height="8" rx="4" fill="#39E68A"/>
<rect x="359" y="1069" width="42" height="8" rx="4" fill="#39E68A"/>
<g filter="url(#filter5_dd_13_91)">
<rect x="132" y="922" width="80" height="80" rx="8" fill="#5E6266"/>
</g>
<path d="M182.867 946.312L168.734 978H164.188L178.273 947.438H159.805V943.875H182.867V946.312Z" fill="#E6ECF2"/>
<g filter="url(#filter6_dd_13_91)">
<rect x="236" y="922" width="80" height="80" rx="8" fill="#5E6266"/>
</g>
<path d="M286.531 952.781C286.531 954.484 286.078 956 285.172 957.328C284.281 958.656 283.07 959.695 281.539 960.445C283.32 961.211 284.727 962.328 285.758 963.797C286.805 965.266 287.328 966.93 287.328 968.789C287.328 971.742 286.328 974.094 284.328 975.844C282.344 977.594 279.727 978.469 276.477 978.469C273.195 978.469 270.562 977.594 268.578 975.844C266.609 974.078 265.625 971.727 265.625 968.789C265.625 966.945 266.125 965.281 267.125 963.797C268.141 962.312 269.539 961.188 271.32 960.422C269.805 959.672 268.609 958.633 267.734 957.305C266.859 955.977 266.422 954.469 266.422 952.781C266.422 949.906 267.344 947.625 269.188 945.938C271.031 944.25 273.461 943.406 276.477 943.406C279.477 943.406 281.898 944.25 283.742 945.938C285.602 947.625 286.531 949.906 286.531 952.781ZM282.992 968.695C282.992 966.789 282.383 965.234 281.164 964.031C279.961 962.828 278.383 962.227 276.43 962.227C274.477 962.227 272.906 962.82 271.719 964.008C270.547 965.195 269.961 966.758 269.961 968.695C269.961 970.633 270.531 972.156 271.672 973.266C272.828 974.375 274.43 974.93 276.477 974.93C278.508 974.93 280.102 974.375 281.258 973.266C282.414 972.141 282.992 970.617 282.992 968.695ZM276.477 946.969C274.773 946.969 273.391 947.5 272.328 948.562C271.281 949.609 270.758 951.039 270.758 952.852C270.758 954.586 271.273 955.992 272.305 957.07C273.352 958.133 274.742 958.664 276.477 958.664C278.211 958.664 279.594 958.133 280.625 957.07C281.672 955.992 282.195 954.586 282.195 952.852C282.195 951.117 281.656 949.703 280.578 948.609C279.5 947.516 278.133 946.969 276.477 946.969Z" fill="#E6ECF2"/>
<g filter="url(#filter7_dd_13_91)">
<rect x="133" y="818" width="80" height="80" rx="8" fill="#5E6266"/>
</g>
<path d="M180.141 862.539H184.875V866.078H180.141V874H175.781V866.078H160.242V863.523L175.523 839.875H180.141V862.539ZM165.164 862.539H175.781V845.805L175.266 846.742L165.164 862.539Z" fill="#E6ECF2"/>
<g filter="url(#filter8_dd_13_91)">
<rect x="237" y="818" width="80" height="80" rx="8" fill="#5E6266"/>
</g>
<path d="M267.828 856.891L269.562 839.875H287.047V843.883H273.242L272.211 853.188C273.883 852.203 275.781 851.711 277.906 851.711C281.016 851.711 283.484 852.742 285.312 854.805C287.141 856.852 288.055 859.625 288.055 863.125C288.055 866.641 287.102 869.414 285.195 871.445C283.305 873.461 280.656 874.469 277.25 874.469C274.234 874.469 271.773 873.633 269.867 871.961C267.961 870.289 266.875 867.977 266.609 865.023H270.711C270.977 866.977 271.672 868.453 272.797 869.453C273.922 870.438 275.406 870.93 277.25 870.93C279.266 870.93 280.844 870.242 281.984 868.867C283.141 867.492 283.719 865.594 283.719 863.172C283.719 860.891 283.094 859.062 281.844 857.688C280.609 856.297 278.961 855.602 276.898 855.602C275.008 855.602 273.523 856.016 272.445 856.844L271.297 857.781L267.828 856.891Z" fill="#E6ECF2"/>
<g filter="url(#filter9_dd_13_91)">
<rect x="341" y="818" width="80" height="80" rx="8" fill="#5E6266"/>
</g>
<path d="M387.852 839.852V843.531H387.055C383.68 843.594 380.992 844.594 378.992 846.531C376.992 848.469 375.836 851.195 375.523 854.711C377.32 852.648 379.773 851.617 382.883 851.617C385.852 851.617 388.219 852.664 389.984 854.758C391.766 856.852 392.656 859.555 392.656 862.867C392.656 866.383 391.695 869.195 389.773 871.305C387.867 873.414 385.305 874.469 382.086 874.469C378.82 874.469 376.172 873.219 374.141 870.719C372.109 868.203 371.094 864.969 371.094 861.016V859.352C371.094 853.07 372.43 848.273 375.102 844.961C377.789 841.633 381.781 839.93 387.078 839.852H387.852ZM382.156 855.227C380.672 855.227 379.305 855.672 378.055 856.562C376.805 857.453 375.938 858.57 375.453 859.914V861.508C375.453 864.32 376.086 866.586 377.352 868.305C378.617 870.023 380.195 870.883 382.086 870.883C384.039 870.883 385.57 870.164 386.68 868.727C387.805 867.289 388.367 865.406 388.367 863.078C388.367 860.734 387.797 858.844 386.656 857.406C385.531 855.953 384.031 855.227 382.156 855.227Z" fill="#E6ECF2"/>
<g filter="url(#filter10_dd_13_91)">
<rect x="444" y="714" width="80" height="80" rx="8" fill="#5E6266"/>
</g>
<path fill-rule="evenodd" clip-rule="evenodd" d="M470.303 740.303C470.753 739.853 471.364 739.601 472 739.601C472.636 739.601 473.247 739.853 473.697 740.303L484 750.606L494.303 740.303C494.525 740.074 494.789 739.891 495.082 739.765C495.375 739.64 495.69 739.573 496.009 739.571C496.327 739.568 496.643 739.629 496.938 739.749C497.233 739.87 497.501 740.048 497.727 740.273C497.952 740.499 498.13 740.767 498.251 741.062C498.371 741.357 498.432 741.673 498.429 741.991C498.427 742.31 498.36 742.625 498.235 742.918C498.109 743.211 497.926 743.475 497.697 743.697L487.394 754L497.697 764.303C498.134 764.756 498.376 765.362 498.37 765.991C498.365 766.621 498.113 767.223 497.668 767.668C497.223 768.113 496.621 768.365 495.991 768.37C495.362 768.376 494.756 768.134 494.303 767.697L484 757.394L473.697 767.697C473.244 768.134 472.638 768.376 472.009 768.37C471.379 768.365 470.777 768.113 470.332 767.668C469.887 767.223 469.635 766.621 469.63 765.991C469.624 765.362 469.866 764.756 470.303 764.303L480.606 754L470.303 743.697C469.853 743.247 469.601 742.636 469.601 742C469.601 741.364 469.853 740.753 470.303 740.303Z" fill="#F23057"/>
<g filter="url(#filter11_dd_13_91)">
<rect x="340" y="714" width="80" height="80" rx="8" fill="#5E6266"/>
</g>
<path d="M375.141 750.828H378.398C380.445 750.797 382.055 750.258 383.227 749.211C384.398 748.164 384.984 746.75 384.984 744.969C384.984 740.969 382.992 738.969 379.008 738.969C377.133 738.969 375.633 739.508 374.508 740.586C373.398 741.648 372.844 743.062 372.844 744.828H368.508C368.508 742.125 369.492 739.883 371.461 738.102C373.445 736.305 375.961 735.406 379.008 735.406C382.227 735.406 384.75 736.258 386.578 737.961C388.406 739.664 389.32 742.031 389.32 745.062C389.32 746.547 388.836 747.984 387.867 749.375C386.914 750.766 385.609 751.805 383.953 752.492C385.828 753.086 387.273 754.07 388.289 755.445C389.32 756.82 389.836 758.5 389.836 760.484C389.836 763.547 388.836 765.977 386.836 767.773C384.836 769.57 382.234 770.469 379.031 770.469C375.828 770.469 373.219 769.602 371.203 767.867C369.203 766.133 368.203 763.844 368.203 761H372.562C372.562 762.797 373.148 764.234 374.32 765.312C375.492 766.391 377.062 766.93 379.031 766.93C381.125 766.93 382.727 766.383 383.836 765.289C384.945 764.195 385.5 762.625 385.5 760.578C385.5 758.594 384.891 757.07 383.672 756.008C382.453 754.945 380.695 754.398 378.398 754.367H375.141V750.828Z" fill="#E6ECF2"/>
<g filter="url(#filter12_dd_13_91)">
<rect x="236" y="714" width="80" height="80" rx="8" fill="#5E6266"/>
</g>
<path d="M287.195 770H264.836V766.883L276.648 753.758C278.398 751.773 279.602 750.164 280.258 748.93C280.93 747.68 281.266 746.391 281.266 745.062C281.266 743.281 280.727 741.82 279.648 740.68C278.57 739.539 277.133 738.969 275.336 738.969C273.18 738.969 271.5 739.586 270.297 740.82C269.109 742.039 268.516 743.742 268.516 745.93H264.18C264.18 742.789 265.188 740.25 267.203 738.312C269.234 736.375 271.945 735.406 275.336 735.406C278.508 735.406 281.016 736.242 282.859 737.914C284.703 739.57 285.625 741.781 285.625 744.547C285.625 747.906 283.484 751.906 279.203 756.547L270.062 766.461H287.195V770Z" fill="#E6ECF2"/>
<g filter="url(#filter13_dd_13_91)">
<rect x="132" y="714" width="80" height="80" rx="8" fill="#5E6266"/>
</g>
<path d="M175.086 770H170.727V741.102L161.984 744.312V740.375L174.406 735.711H175.086V770Z" fill="#E6ECF2"/>
<g filter="url(#filter14_dd_13_91)">
<rect x="445" y="922" width="80" height="80" rx="8" fill="#5E6266"/>
</g>
<g clip-path="url(#clip1_13_91)">
<path fill-rule="evenodd" clip-rule="evenodd" d="M464.63 962C464.63 961.364 464.883 960.753 465.333 960.303C465.783 959.853 466.393 959.6 467.029 959.6L481.6 959.6L481.6 945.029C481.595 944.711 481.653 944.394 481.771 944.098C481.889 943.802 482.065 943.533 482.288 943.305C482.512 943.078 482.778 942.898 483.072 942.774C483.366 942.651 483.681 942.588 484 942.588C484.319 942.588 484.634 942.651 484.928 942.774C485.222 942.898 485.488 943.078 485.712 943.305C485.935 943.533 486.111 943.802 486.229 944.098C486.347 944.394 486.405 944.711 486.4 945.029L486.4 959.6L500.971 959.6C501.6 959.611 502.2 959.869 502.641 960.318C503.082 960.767 503.329 961.371 503.329 962C503.329 962.629 503.082 963.233 502.641 963.682C502.2 964.131 501.6 964.389 500.971 964.4L486.4 964.4L486.4 978.971C486.389 979.6 486.131 980.199 485.682 980.641C485.233 981.082 484.629 981.329 484 981.329C483.371 981.329 482.767 981.082 482.318 980.641C481.869 980.199 481.611 979.6 481.6 978.971L481.6 964.4L467.029 964.4C466.393 964.4 465.783 964.147 465.333 963.697C464.883 963.247 464.63 962.636 464.63 962Z" fill="#F23057"/>
</g>
<path d="M378.086 567H373.727V538.102L364.984 541.312V537.375L377.406 532.711H378.086V567ZM412.188 552.445C412.188 557.523 411.32 561.297 409.586 563.766C407.852 566.234 405.141 567.469 401.453 567.469C397.812 567.469 395.117 566.266 393.367 563.859C391.617 561.438 390.711 557.828 390.648 553.031V547.242C390.648 542.227 391.516 538.5 393.25 536.062C394.984 533.625 397.703 532.406 401.406 532.406C405.078 532.406 407.781 533.586 409.516 535.945C411.25 538.289 412.141 541.914 412.188 546.82V552.445ZM407.852 546.516C407.852 542.844 407.336 540.172 406.305 538.5C405.273 536.812 403.641 535.969 401.406 535.969C399.188 535.969 397.57 536.805 396.555 538.477C395.539 540.148 395.016 542.719 394.984 546.188V553.125C394.984 556.812 395.516 559.539 396.578 561.305C397.656 563.055 399.281 563.93 401.453 563.93C403.594 563.93 405.18 563.102 406.211 561.445C407.258 559.789 407.805 557.18 407.852 553.617V546.516ZM439.141 552.445C439.141 557.523 438.273 561.297 436.539 563.766C434.805 566.234 432.094 567.469 428.406 567.469C424.766 567.469 422.07 566.266 420.32 563.859C418.57 561.438 417.664 557.828 417.602 553.031V547.242C417.602 542.227 418.469 538.5 420.203 536.062C421.938 533.625 424.656 532.406 428.359 532.406C432.031 532.406 434.734 533.586 436.469 535.945C438.203 538.289 439.094 541.914 439.141 546.82V552.445ZM434.805 546.516C434.805 542.844 434.289 540.172 433.258 538.5C432.227 536.812 430.594 535.969 428.359 535.969C426.141 535.969 424.523 536.805 423.508 538.477C422.492 540.148 421.969 542.719 421.938 546.188V553.125C421.938 556.812 422.469 559.539 423.531 561.305C424.609 563.055 426.234 563.93 428.406 563.93C430.547 563.93 432.133 563.102 433.164 561.445C434.211 559.789 434.758 557.18 434.805 553.617V546.516ZM466.094 552.445C466.094 557.523 465.227 561.297 463.492 563.766C461.758 566.234 459.047 567.469 455.359 567.469C451.719 567.469 449.023 566.266 447.273 563.859C445.523 561.438 444.617 557.828 444.555 553.031V547.242C444.555 542.227 445.422 538.5 447.156 536.062C448.891 533.625 451.609 532.406 455.312 532.406C458.984 532.406 461.688 533.586 463.422 535.945C465.156 538.289 466.047 541.914 466.094 546.82V552.445ZM461.758 546.516C461.758 542.844 461.242 540.172 460.211 538.5C459.18 536.812 457.547 535.969 455.312 535.969C453.094 535.969 451.477 536.805 450.461 538.477C449.445 540.148 448.922 542.719 448.891 546.188V553.125C448.891 556.812 449.422 559.539 450.484 561.305C451.562 563.055 453.188 563.93 455.359 563.93C457.5 563.93 459.086 563.102 460.117 561.445C461.164 559.789 461.711 557.18 461.758 553.617V546.516ZM530.758 535.312L516.625 567H512.078L526.164 536.438H507.695V532.875H530.758V535.312Z" fill="white"/>
<path d="M493.023 554.273H481.586V550.734H493.023V554.273Z" fill="#F23057"/>
<path d="M450.938 630C449.729 631.438 448.281 632.594 446.594 633.469C444.927 634.344 443.094 634.781 441.094 634.781C438.469 634.781 436.177 634.135 434.219 632.844C432.281 631.552 430.781 629.74 429.719 627.406C428.656 625.052 428.125 622.458 428.125 619.625C428.125 616.583 428.698 613.844 429.844 611.406C431.01 608.969 432.656 607.104 434.781 605.812C436.906 604.521 439.385 603.875 442.219 603.875C446.719 603.875 450.26 605.562 452.844 608.938C455.448 612.292 456.75 616.875 456.75 622.688V624.375C456.75 633.229 455 639.698 451.5 643.781C448 647.844 442.719 649.927 435.656 650.031H434.531V645.156H435.75C440.521 645.073 444.188 643.833 446.75 641.438C449.312 639.021 450.708 635.208 450.938 630ZM442.031 630C443.969 630 445.75 629.406 447.375 628.219C449.021 627.031 450.219 625.562 450.969 623.812V621.5C450.969 617.708 450.146 614.625 448.5 612.25C446.854 609.875 444.771 608.688 442.25 608.688C439.708 608.688 437.667 609.667 436.125 611.625C434.583 613.562 433.812 616.125 433.812 619.312C433.812 622.417 434.552 624.979 436.031 627C437.531 629 439.531 630 442.031 630ZM486.875 630C485.667 631.438 484.219 632.594 482.531 633.469C480.865 634.344 479.031 634.781 477.031 634.781C474.406 634.781 472.115 634.135 470.156 632.844C468.219 631.552 466.719 629.74 465.656 627.406C464.594 625.052 464.062 622.458 464.062 619.625C464.062 616.583 464.635 613.844 465.781 611.406C466.948 608.969 468.594 607.104 470.719 605.812C472.844 604.521 475.323 603.875 478.156 603.875C482.656 603.875 486.198 605.562 488.781 608.938C491.385 612.292 492.688 616.875 492.688 622.688V624.375C492.688 633.229 490.938 639.698 487.438 643.781C483.938 647.844 478.656 649.927 471.594 650.031H470.469V645.156H471.688C476.458 645.073 480.125 643.833 482.688 641.438C485.25 639.021 486.646 635.208 486.875 630ZM477.969 630C479.906 630 481.688 629.406 483.312 628.219C484.958 627.031 486.156 625.562 486.906 623.812V621.5C486.906 617.708 486.083 614.625 484.438 612.25C482.792 609.875 480.708 608.688 478.188 608.688C475.646 608.688 473.604 609.667 472.062 611.625C470.521 613.562 469.75 616.125 469.75 619.312C469.75 622.417 470.49 624.979 471.969 627C473.469 629 475.469 630 477.969 630ZM509.062 624.438H513.406C516.135 624.396 518.281 623.677 519.844 622.281C521.406 620.885 522.188 619 522.188 616.625C522.188 611.292 519.531 608.625 514.219 608.625C511.719 608.625 509.719 609.344 508.219 610.781C506.74 612.198 506 614.083 506 616.438H500.219C500.219 612.833 501.531 609.844 504.156 607.469C506.802 605.073 510.156 603.875 514.219 603.875C518.51 603.875 521.875 605.01 524.312 607.281C526.75 609.552 527.969 612.708 527.969 616.75C527.969 618.729 527.323 620.646 526.031 622.5C524.76 624.354 523.021 625.74 520.812 626.656C523.312 627.448 525.24 628.76 526.594 630.594C527.969 632.427 528.656 634.667 528.656 637.312C528.656 641.396 527.323 644.635 524.656 647.031C521.99 649.427 518.521 650.625 514.25 650.625C509.979 650.625 506.5 649.469 503.812 647.156C501.146 644.844 499.812 641.792 499.812 638H505.625C505.625 640.396 506.406 642.312 507.969 643.75C509.531 645.188 511.625 645.906 514.25 645.906C517.042 645.906 519.177 645.177 520.656 643.719C522.135 642.26 522.875 640.167 522.875 637.438C522.875 634.792 522.062 632.76 520.438 631.344C518.812 629.927 516.469 629.198 513.406 629.156H509.062V624.438Z" fill="white"/>
<g filter="url(#filter15_dd_13_91)">
<rect x="444" y="818" width="80" height="80" rx="8" fill="#5E6266"/>
</g>
<rect x="460" y="855" width="48" height="7" rx="3.5" fill="#F23057"/>
<g filter="url(#filter16_dd_13_91)">
<rect x="444" y="1026" width="80" height="80" rx="8" fill="#5E6266"/>
</g>
<rect x="463" y="1063" width="42" height="6" rx="3" fill="#F23057"/>
<circle cx="483" cy="1050" r="5" stroke="#F23057" stroke-width="4"/>
<circle cx="483" cy="1082" r="5" stroke="#F23057" stroke-width="4"/>
<g filter="url(#filter17_d_13_91)">
<path d="M273 366H383V398C383 404.627 377.627 410 371 410H285C278.373 410 273 404.627 273 398V366Z" fill="#292E33"/>
</g>
<path fill-rule="evenodd" clip-rule="evenodd" d="M305 376.8C305.371 376.8 305.727 376.948 305.99 377.21C306.252 377.473 306.4 377.829 306.4 378.2V379.6C306.4 379.971 306.252 380.327 305.99 380.59C305.727 380.853 305.371 381 305 381C304.629 381 304.273 380.853 304.01 380.59C303.747 380.327 303.6 379.971 303.6 379.6V378.2C303.6 377.829 303.747 377.473 304.01 377.21C304.273 376.948 304.629 376.8 305 376.8ZM310.6 388C310.6 389.485 310.01 390.91 308.96 391.96C307.91 393.01 306.485 393.6 305 393.6C303.515 393.6 302.09 393.01 301.04 391.96C299.99 390.91 299.4 389.485 299.4 388C299.4 386.515 299.99 385.09 301.04 384.04C302.09 382.99 303.515 382.4 305 382.4C306.485 382.4 307.91 382.99 308.96 384.04C310.01 385.09 310.6 386.515 310.6 388ZM309.95 394.93L310.94 395.92C311.204 396.175 311.558 396.316 311.925 396.313C312.292 396.31 312.643 396.162 312.903 395.903C313.162 395.643 313.31 395.292 313.313 394.925C313.316 394.558 313.175 394.204 312.92 393.94L311.93 392.95C311.666 392.695 311.312 392.554 310.945 392.558C310.578 392.561 310.227 392.708 309.967 392.968C309.708 393.227 309.561 393.578 309.557 393.945C309.554 394.312 309.695 394.666 309.95 394.93ZM312.918 380.08C313.181 380.343 313.328 380.699 313.328 381.07C313.328 381.441 313.181 381.797 312.918 382.06L311.93 383.05C311.801 383.183 311.646 383.29 311.476 383.363C311.305 383.437 311.121 383.475 310.935 383.477C310.749 383.479 310.565 383.443 310.393 383.373C310.221 383.302 310.064 383.198 309.933 383.067C309.802 382.936 309.698 382.779 309.627 382.607C309.557 382.435 309.521 382.251 309.523 382.065C309.525 381.879 309.563 381.695 309.637 381.524C309.71 381.354 309.817 381.199 309.95 381.07L310.94 380.08C311.203 379.818 311.559 379.67 311.93 379.67C312.301 379.67 312.657 379.818 312.92 380.08H312.918ZM314.8 389.4C315.171 389.4 315.527 389.253 315.79 388.99C316.052 388.727 316.2 388.371 316.2 388C316.2 387.629 316.052 387.273 315.79 387.01C315.527 386.748 315.171 386.6 314.8 386.6H313.4C313.029 386.6 312.673 386.748 312.41 387.01C312.147 387.273 312 387.629 312 388C312 388.371 312.147 388.727 312.41 388.99C312.673 389.253 313.029 389.4 313.4 389.4H314.8ZM305 395C305.371 395 305.727 395.148 305.99 395.41C306.252 395.673 306.4 396.029 306.4 396.4V397.8C306.4 398.171 306.252 398.527 305.99 398.79C305.727 399.053 305.371 399.2 305 399.2C304.629 399.2 304.273 399.053 304.01 398.79C303.747 398.527 303.6 398.171 303.6 397.8V396.4C303.6 396.029 303.747 395.673 304.01 395.41C304.273 395.148 304.629 395 305 395ZM298.07 383.05C298.2 383.18 298.354 383.283 298.524 383.353C298.694 383.424 298.876 383.46 299.06 383.46C299.244 383.46 299.426 383.424 299.596 383.354C299.766 383.283 299.92 383.18 300.05 383.05C300.18 382.92 300.284 382.766 300.354 382.596C300.424 382.426 300.461 382.244 300.461 382.06C300.461 381.876 300.425 381.694 300.354 381.524C300.284 381.355 300.181 381.2 300.051 381.07L299.06 380.08C298.796 379.825 298.442 379.684 298.075 379.687C297.708 379.69 297.357 379.838 297.097 380.097C296.838 380.357 296.69 380.708 296.687 381.075C296.684 381.442 296.825 381.796 297.08 382.06L298.07 383.05ZM300.05 394.93L299.06 395.92C298.796 396.175 298.442 396.316 298.075 396.313C297.708 396.31 297.357 396.162 297.097 395.903C296.838 395.643 296.69 395.292 296.687 394.925C296.684 394.558 296.825 394.204 297.08 393.94L298.07 392.95C298.334 392.695 298.688 392.554 299.055 392.558C299.422 392.561 299.773 392.708 300.033 392.968C300.292 393.227 300.439 393.578 300.443 393.945C300.446 394.312 300.305 394.666 300.05 394.93ZM296.6 389.4C296.971 389.4 297.327 389.253 297.59 388.99C297.852 388.727 298 388.371 298 388C298 387.629 297.852 387.273 297.59 387.01C297.327 386.748 296.971 386.6 296.6 386.6H295.2C294.829 386.6 294.473 386.748 294.21 387.01C293.947 387.273 293.8 387.629 293.8 388C293.8 388.371 293.947 388.727 294.21 388.99C294.473 389.253 294.829 389.4 295.2 389.4H296.6Z" fill="#E4E9EE"/>
<path d="M361.21 392.61C359.136 393.548 356.825 393.832 354.586 393.424C352.346 393.016 350.285 391.935 348.675 390.325C347.065 388.715 345.984 386.654 345.576 384.414C345.168 382.175 345.452 379.864 346.39 377.79C344.739 378.536 343.293 379.672 342.177 381.099C341.061 382.527 340.309 384.204 339.983 385.987C339.658 387.769 339.77 389.604 340.31 391.334C340.85 393.064 341.801 394.637 343.082 395.918C344.363 397.199 345.936 398.15 347.666 398.69C349.396 399.23 351.231 399.342 353.013 399.017C354.796 398.691 356.473 397.939 357.901 396.823C359.328 395.707 360.464 394.261 361.21 392.61Z" fill="#18ACEB"/>
<g filter="url(#filter18_d_13_91)">
<rect x="771" y="366" width="457" height="768" rx="20" fill="#E6EFF7"/>
</g>
<g filter="url(#filter19_d_13_91)">
<path d="M945 366H1055V398C1055 404.627 1049.63 410 1043 410H957C950.373 410 945 404.627 945 398V366Z" fill="#D7DFE5"/>
</g>
<path fill-rule="evenodd" clip-rule="evenodd" d="M977 376.8C977.371 376.8 977.727 376.948 977.99 377.21C978.253 377.473 978.4 377.829 978.4 378.2V379.6C978.4 379.971 978.253 380.327 977.99 380.59C977.727 380.853 977.371 381 977 381C976.629 381 976.273 380.853 976.01 380.59C975.748 380.327 975.6 379.971 975.6 379.6V378.2C975.6 377.829 975.748 377.473 976.01 377.21C976.273 376.948 976.629 376.8 977 376.8ZM982.6 388C982.6 389.485 982.01 390.91 980.96 391.96C979.91 393.01 978.485 393.6 977 393.6C975.515 393.6 974.09 393.01 973.04 391.96C971.99 390.91 971.4 389.485 971.4 388C971.4 386.515 971.99 385.09 973.04 384.04C974.09 382.99 975.515 382.4 977 382.4C978.485 382.4 979.91 382.99 980.96 384.04C982.01 385.09 982.6 386.515 982.6 388ZM981.95 394.93L982.94 395.92C983.204 396.175 983.558 396.316 983.925 396.313C984.292 396.31 984.643 396.162 984.903 395.903C985.162 395.643 985.31 395.292 985.313 394.925C985.316 394.558 985.175 394.204 984.92 393.94L983.93 392.95C983.666 392.695 983.312 392.554 982.945 392.558C982.578 392.561 982.227 392.708 981.967 392.968C981.708 393.227 981.561 393.578 981.557 393.945C981.554 394.312 981.695 394.666 981.95 394.93ZM984.918 380.08C985.181 380.343 985.328 380.699 985.328 381.07C985.328 381.441 985.181 381.797 984.918 382.06L983.93 383.05C983.801 383.183 983.646 383.29 983.476 383.363C983.305 383.437 983.121 383.475 982.935 383.477C982.749 383.479 982.565 383.443 982.393 383.373C982.221 383.302 982.065 383.198 981.933 383.067C981.802 382.936 981.698 382.779 981.627 382.607C981.557 382.435 981.521 382.251 981.523 382.065C981.525 381.879 981.563 381.695 981.637 381.524C981.71 381.354 981.817 381.199 981.95 381.07L982.94 380.08C983.203 379.818 983.559 379.67 983.93 379.67C984.301 379.67 984.657 379.818 984.92 380.08H984.918ZM986.8 389.4C987.171 389.4 987.527 389.253 987.79 388.99C988.053 388.727 988.2 388.371 988.2 388C988.2 387.629 988.053 387.273 987.79 387.01C987.527 386.748 987.171 386.6 986.8 386.6H985.4C985.029 386.6 984.673 386.748 984.41 387.01C984.148 387.273 984 387.629 984 388C984 388.371 984.148 388.727 984.41 388.99C984.673 389.253 985.029 389.4 985.4 389.4H986.8ZM977 395C977.371 395 977.727 395.148 977.99 395.41C978.253 395.673 978.4 396.029 978.4 396.4V397.8C978.4 398.171 978.253 398.527 977.99 398.79C977.727 399.053 977.371 399.2 977 399.2C976.629 399.2 976.273 399.053 976.01 398.79C975.748 398.527 975.6 398.171 975.6 397.8V396.4C975.6 396.029 975.748 395.673 976.01 395.41C976.273 395.148 976.629 395 977 395ZM970.07 383.05C970.2 383.18 970.354 383.283 970.524 383.353C970.694 383.424 970.876 383.46 971.06 383.46C971.244 383.46 971.426 383.424 971.596 383.354C971.766 383.283 971.92 383.18 972.05 383.05C972.18 382.92 972.284 382.766 972.354 382.596C972.424 382.426 972.461 382.244 972.461 382.06C972.461 381.876 972.425 381.694 972.354 381.524C972.284 381.355 972.181 381.2 972.051 381.07L971.06 380.08C970.796 379.825 970.442 379.684 970.075 379.687C969.708 379.69 969.357 379.838 969.097 380.097C968.838 380.357 968.69 380.708 968.687 381.075C968.684 381.442 968.825 381.796 969.08 382.06L970.07 383.05ZM972.05 394.93L971.06 395.92C970.796 396.175 970.442 396.316 970.075 396.313C969.708 396.31 969.357 396.162 969.097 395.903C968.838 395.643 968.69 395.292 968.687 394.925C968.684 394.558 968.825 394.204 969.08 393.94L970.07 392.95C970.334 392.695 970.688 392.554 971.055 392.558C971.422 392.561 971.773 392.708 972.033 392.968C972.292 393.227 972.439 393.578 972.443 393.945C972.446 394.312 972.305 394.666 972.05 394.93ZM968.6 389.4C968.971 389.4 969.327 389.253 969.59 388.99C969.853 388.727 970 388.371 970 388C970 387.629 969.853 387.273 969.59 387.01C969.327 386.748 968.971 386.6 968.6 386.6H967.2C966.829 386.6 966.473 386.748 966.21 387.01C965.948 387.273 965.8 387.629 965.8 388C965.8 388.371 965.948 388.727 966.21 388.99C966.473 389.253 966.829 389.4 967.2 389.4H968.6Z" fill="#18ACEB"/>
<path d="M1033.21 392.61C1031.14 393.548 1028.83 393.832 1026.59 393.424C1024.35 393.016 1022.28 391.935 1020.67 390.325C1019.07 388.715 1017.98 386.654 1017.58 384.414C1017.17 382.175 1017.45 379.864 1018.39 377.79C1016.74 378.536 1015.29 379.672 1014.18 381.099C1013.06 382.527 1012.31 384.204 1011.98 385.987C1011.66 387.769 1011.77 389.604 1012.31 391.334C1012.85 393.064 1013.8 394.637 1015.08 395.918C1016.36 397.199 1017.94 398.15 1019.67 398.69C1021.4 399.23 1023.23 399.342 1025.01 399.017C1026.8 398.691 1028.47 397.939 1029.9 396.823C1031.33 395.707 1032.46 394.261 1033.21 392.61Z" fill="#5E6266"/>
<path d="M772 714C772 696.327 786.327 682 804 682H1196C1213.67 682 1228 696.327 1228 714V1114C1228 1125.05 1219.05 1134 1208 1134H792C780.954 1134 772 1125.05 772 1114V714Z" fill="#D7DFE6"/>
<g filter="url(#filter20_dd_13_91)">
<rect x="907" y="1026" width="80" height="80" rx="8" fill="#E4E9EE"/>
</g>
<path d="M957.234 1067.45C957.234 1072.52 956.367 1076.3 954.633 1078.77C952.898 1081.23 950.188 1082.47 946.5 1082.47C942.859 1082.47 940.164 1081.27 938.414 1078.86C936.664 1076.44 935.758 1072.83 935.695 1068.03V1062.24C935.695 1057.23 936.562 1053.5 938.297 1051.06C940.031 1048.62 942.75 1047.41 946.453 1047.41C950.125 1047.41 952.828 1048.59 954.562 1050.95C956.297 1053.29 957.188 1056.91 957.234 1061.82V1067.45ZM952.898 1061.52C952.898 1057.84 952.383 1055.17 951.352 1053.5C950.32 1051.81 948.688 1050.97 946.453 1050.97C944.234 1050.97 942.617 1051.8 941.602 1053.48C940.586 1055.15 940.062 1057.72 940.031 1061.19V1068.12C940.031 1071.81 940.562 1074.54 941.625 1076.3C942.703 1078.05 944.328 1078.93 946.5 1078.93C948.641 1078.93 950.227 1078.1 951.258 1076.45C952.305 1074.79 952.852 1072.18 952.898 1068.62V1061.52Z" fill="#292E33"/>
<g filter="url(#filter21_dd_13_91)">
<rect x="803" y="1026" width="80" height="80" rx="8" fill="#E4E9EE"/>
</g>
<path d="M839.375 1079.73C839.375 1078.98 839.594 1078.35 840.031 1077.85C840.484 1077.35 841.156 1077.1 842.047 1077.1C842.938 1077.1 843.609 1077.35 844.062 1077.85C844.531 1078.35 844.766 1078.98 844.766 1079.73C844.766 1080.45 844.531 1081.05 844.062 1081.53C843.609 1082.02 842.938 1082.26 842.047 1082.26C841.156 1082.26 840.484 1082.02 840.031 1081.53C839.594 1081.05 839.375 1080.45 839.375 1079.73Z" fill="#292E33"/>
<g filter="url(#filter22_dd_13_91)">
<rect x="1011" y="922" width="80" height="80" rx="8" fill="#E4E9EE"/>
</g>
<path d="M1058.45 963C1057.55 964.078 1056.46 964.945 1055.2 965.602C1053.95 966.258 1052.57 966.586 1051.07 966.586C1049.1 966.586 1047.38 966.102 1045.91 965.133C1044.46 964.164 1043.34 962.805 1042.54 961.055C1041.74 959.289 1041.34 957.344 1041.34 955.219C1041.34 952.938 1041.77 950.883 1042.63 949.055C1043.51 947.227 1044.74 945.828 1046.34 944.859C1047.93 943.891 1049.79 943.406 1051.91 943.406C1055.29 943.406 1057.95 944.672 1059.88 947.203C1061.84 949.719 1062.81 953.156 1062.81 957.516V958.781C1062.81 965.422 1061.5 970.273 1058.88 973.336C1056.25 976.383 1052.29 977.945 1046.99 978.023H1046.15V974.367H1047.06C1050.64 974.305 1053.39 973.375 1055.31 971.578C1057.23 969.766 1058.28 966.906 1058.45 963ZM1051.77 963C1053.23 963 1054.56 962.555 1055.78 961.664C1057.02 960.773 1057.91 959.672 1058.48 958.359V956.625C1058.48 953.781 1057.86 951.469 1056.62 949.688C1055.39 947.906 1053.83 947.016 1051.94 947.016C1050.03 947.016 1048.5 947.75 1047.34 949.219C1046.19 950.672 1045.61 952.594 1045.61 954.984C1045.61 957.312 1046.16 959.234 1047.27 960.75C1048.4 962.25 1049.9 963 1051.77 963Z" fill="#292E33"/>
<g filter="url(#filter23_dd_13_91)">
<rect x="1011" y="1026" width="80" height="80" rx="8" fill="#E4E9EE"/>
</g>
<rect x="1030" y="1055" width="42" height="8" rx="4" fill="#39E68A"/>
<rect x="1030" y="1069" width="42" height="8" rx="4" fill="#39E68A"/>
<g filter="url(#filter24_dd_13_91)">
<rect x="803" y="922" width="80" height="80" rx="8" fill="#E4E9EE"/>
</g>
<path d="M853.867 946.312L839.734 978H835.188L849.273 947.438H830.805V943.875H853.867V946.312Z" fill="#292E33"/>
<g filter="url(#filter25_dd_13_91)">
<rect x="907" y="922" width="80" height="80" rx="8" fill="#E4E9EE"/>
</g>
<path d="M957.531 952.781C957.531 954.484 957.078 956 956.172 957.328C955.281 958.656 954.07 959.695 952.539 960.445C954.32 961.211 955.727 962.328 956.758 963.797C957.805 965.266 958.328 966.93 958.328 968.789C958.328 971.742 957.328 974.094 955.328 975.844C953.344 977.594 950.727 978.469 947.477 978.469C944.195 978.469 941.562 977.594 939.578 975.844C937.609 974.078 936.625 971.727 936.625 968.789C936.625 966.945 937.125 965.281 938.125 963.797C939.141 962.312 940.539 961.188 942.32 960.422C940.805 959.672 939.609 958.633 938.734 957.305C937.859 955.977 937.422 954.469 937.422 952.781C937.422 949.906 938.344 947.625 940.188 945.938C942.031 944.25 944.461 943.406 947.477 943.406C950.477 943.406 952.898 944.25 954.742 945.938C956.602 947.625 957.531 949.906 957.531 952.781ZM953.992 968.695C953.992 966.789 953.383 965.234 952.164 964.031C950.961 962.828 949.383 962.227 947.43 962.227C945.477 962.227 943.906 962.82 942.719 964.008C941.547 965.195 940.961 966.758 940.961 968.695C940.961 970.633 941.531 972.156 942.672 973.266C943.828 974.375 945.43 974.93 947.477 974.93C949.508 974.93 951.102 974.375 952.258 973.266C953.414 972.141 953.992 970.617 953.992 968.695ZM947.477 946.969C945.773 946.969 944.391 947.5 943.328 948.562C942.281 949.609 941.758 951.039 941.758 952.852C941.758 954.586 942.273 955.992 943.305 957.07C944.352 958.133 945.742 958.664 947.477 958.664C949.211 958.664 950.594 958.133 951.625 957.07C952.672 955.992 953.195 954.586 953.195 952.852C953.195 951.117 952.656 949.703 951.578 948.609C950.5 947.516 949.133 946.969 947.477 946.969Z" fill="#292E33"/>
<g filter="url(#filter26_dd_13_91)">
<rect x="804" y="818" width="80" height="80" rx="8" fill="#E4E9EE"/>
</g>
<path d="M851.141 862.539H855.875V866.078H851.141V874H846.781V866.078H831.242V863.523L846.523 839.875H851.141V862.539ZM836.164 862.539H846.781V845.805L846.266 846.742L836.164 862.539Z" fill="#292E33"/>
<g filter="url(#filter27_dd_13_91)">
<rect x="908" y="818" width="80" height="80" rx="8" fill="#E4E9EE"/>
</g>
<path d="M938.828 856.891L940.562 839.875H958.047V843.883H944.242L943.211 853.188C944.883 852.203 946.781 851.711 948.906 851.711C952.016 851.711 954.484 852.742 956.312 854.805C958.141 856.852 959.055 859.625 959.055 863.125C959.055 866.641 958.102 869.414 956.195 871.445C954.305 873.461 951.656 874.469 948.25 874.469C945.234 874.469 942.773 873.633 940.867 871.961C938.961 870.289 937.875 867.977 937.609 865.023H941.711C941.977 866.977 942.672 868.453 943.797 869.453C944.922 870.438 946.406 870.93 948.25 870.93C950.266 870.93 951.844 870.242 952.984 868.867C954.141 867.492 954.719 865.594 954.719 863.172C954.719 860.891 954.094 859.062 952.844 857.688C951.609 856.297 949.961 855.602 947.898 855.602C946.008 855.602 944.523 856.016 943.445 856.844L942.297 857.781L938.828 856.891Z" fill="#292E33"/>
<g filter="url(#filter28_dd_13_91)">
<rect x="1012" y="818" width="80" height="80" rx="8" fill="#E4E9EE"/>
</g>
<path d="M1058.85 839.852V843.531H1058.05C1054.68 843.594 1051.99 844.594 1049.99 846.531C1047.99 848.469 1046.84 851.195 1046.52 854.711C1048.32 852.648 1050.77 851.617 1053.88 851.617C1056.85 851.617 1059.22 852.664 1060.98 854.758C1062.77 856.852 1063.66 859.555 1063.66 862.867C1063.66 866.383 1062.7 869.195 1060.77 871.305C1058.87 873.414 1056.3 874.469 1053.09 874.469C1049.82 874.469 1047.17 873.219 1045.14 870.719C1043.11 868.203 1042.09 864.969 1042.09 861.016V859.352C1042.09 853.07 1043.43 848.273 1046.1 844.961C1048.79 841.633 1052.78 839.93 1058.08 839.852H1058.85ZM1053.16 855.227C1051.67 855.227 1050.3 855.672 1049.05 856.562C1047.8 857.453 1046.94 858.57 1046.45 859.914V861.508C1046.45 864.32 1047.09 866.586 1048.35 868.305C1049.62 870.023 1051.2 870.883 1053.09 870.883C1055.04 870.883 1056.57 870.164 1057.68 868.727C1058.8 867.289 1059.37 865.406 1059.37 863.078C1059.37 860.734 1058.8 858.844 1057.66 857.406C1056.53 855.953 1055.03 855.227 1053.16 855.227Z" fill="#292E33"/>
<g filter="url(#filter29_dd_13_91)">
<rect x="1115" y="714" width="80" height="80" rx="8" fill="#E4E9EE"/>
</g>
<path fill-rule="evenodd" clip-rule="evenodd" d="M1141.3 740.303C1141.75 739.853 1142.36 739.601 1143 739.601C1143.64 739.601 1144.25 739.853 1144.7 740.303L1155 750.606L1165.3 740.303C1165.52 740.074 1165.79 739.891 1166.08 739.765C1166.38 739.64 1166.69 739.573 1167.01 739.571C1167.33 739.568 1167.64 739.629 1167.94 739.749C1168.23 739.87 1168.5 740.048 1168.73 740.273C1168.95 740.499 1169.13 740.767 1169.25 741.062C1169.37 741.357 1169.43 741.673 1169.43 741.991C1169.43 742.31 1169.36 742.625 1169.23 742.918C1169.11 743.211 1168.93 743.475 1168.7 743.697L1158.39 754L1168.7 764.303C1169.13 764.756 1169.38 765.362 1169.37 765.991C1169.36 766.621 1169.11 767.223 1168.67 767.668C1168.22 768.113 1167.62 768.365 1166.99 768.37C1166.36 768.376 1165.76 768.134 1165.3 767.697L1155 757.394L1144.7 767.697C1144.24 768.134 1143.64 768.376 1143.01 768.37C1142.38 768.365 1141.78 768.113 1141.33 767.668C1140.89 767.223 1140.64 766.621 1140.63 765.991C1140.62 765.362 1140.87 764.756 1141.3 764.303L1151.61 754L1141.3 743.697C1140.85 743.247 1140.6 742.636 1140.6 742C1140.6 741.364 1140.85 740.753 1141.3 740.303Z" fill="#F23057"/>
<g filter="url(#filter30_dd_13_91)">
<rect x="1011" y="714" width="80" height="80" rx="8" fill="#E4E9EE"/>
</g>
<path d="M1046.14 750.828H1049.4C1051.45 750.797 1053.05 750.258 1054.23 749.211C1055.4 748.164 1055.98 746.75 1055.98 744.969C1055.98 740.969 1053.99 738.969 1050.01 738.969C1048.13 738.969 1046.63 739.508 1045.51 740.586C1044.4 741.648 1043.84 743.062 1043.84 744.828H1039.51C1039.51 742.125 1040.49 739.883 1042.46 738.102C1044.45 736.305 1046.96 735.406 1050.01 735.406C1053.23 735.406 1055.75 736.258 1057.58 737.961C1059.41 739.664 1060.32 742.031 1060.32 745.062C1060.32 746.547 1059.84 747.984 1058.87 749.375C1057.91 750.766 1056.61 751.805 1054.95 752.492C1056.83 753.086 1058.27 754.07 1059.29 755.445C1060.32 756.82 1060.84 758.5 1060.84 760.484C1060.84 763.547 1059.84 765.977 1057.84 767.773C1055.84 769.57 1053.23 770.469 1050.03 770.469C1046.83 770.469 1044.22 769.602 1042.2 767.867C1040.2 766.133 1039.2 763.844 1039.2 761H1043.56C1043.56 762.797 1044.15 764.234 1045.32 765.312C1046.49 766.391 1048.06 766.93 1050.03 766.93C1052.12 766.93 1053.73 766.383 1054.84 765.289C1055.95 764.195 1056.5 762.625 1056.5 760.578C1056.5 758.594 1055.89 757.07 1054.67 756.008C1053.45 754.945 1051.7 754.398 1049.4 754.367H1046.14V750.828Z" fill="#292E33"/>
<g filter="url(#filter31_dd_13_91)">
<rect x="907" y="714" width="80" height="80" rx="8" fill="#E4E9EE"/>
</g>
<path d="M958.195 770H935.836V766.883L947.648 753.758C949.398 751.773 950.602 750.164 951.258 748.93C951.93 747.68 952.266 746.391 952.266 745.062C952.266 743.281 951.727 741.82 950.648 740.68C949.57 739.539 948.133 738.969 946.336 738.969C944.18 738.969 942.5 739.586 941.297 740.82C940.109 742.039 939.516 743.742 939.516 745.93H935.18C935.18 742.789 936.188 740.25 938.203 738.312C940.234 736.375 942.945 735.406 946.336 735.406C949.508 735.406 952.016 736.242 953.859 737.914C955.703 739.57 956.625 741.781 956.625 744.547C956.625 747.906 954.484 751.906 950.203 756.547L941.062 766.461H958.195V770Z" fill="#292E33"/>
<g filter="url(#filter32_dd_13_91)">
<rect x="803" y="714" width="80" height="80" rx="8" fill="#E4E9EE"/>
</g>
<path d="M846.086 770H841.727V741.102L832.984 744.312V740.375L845.406 735.711H846.086V770Z" fill="#292E33"/>
<g filter="url(#filter33_dd_13_91)">
<rect x="1116" y="922" width="80" height="80" rx="8" fill="#E4E9EE"/>
</g>
<g clip-path="url(#clip2_13_91)">
<path fill-rule="evenodd" clip-rule="evenodd" d="M1135.63 962C1135.63 961.364 1135.88 960.753 1136.33 960.303C1136.78 959.853 1137.39 959.6 1138.03 959.6L1152.6 959.6L1152.6 945.029C1152.59 944.711 1152.65 944.394 1152.77 944.098C1152.89 943.802 1153.06 943.533 1153.29 943.305C1153.51 943.078 1153.78 942.898 1154.07 942.774C1154.37 942.651 1154.68 942.588 1155 942.588C1155.32 942.588 1155.63 942.651 1155.93 942.774C1156.22 942.898 1156.49 943.078 1156.71 943.305C1156.94 943.533 1157.11 943.802 1157.23 944.098C1157.35 944.394 1157.41 944.711 1157.4 945.029L1157.4 959.6L1171.97 959.6C1172.6 959.611 1173.2 959.869 1173.64 960.318C1174.08 960.767 1174.33 961.371 1174.33 962C1174.33 962.629 1174.08 963.233 1173.64 963.682C1173.2 964.131 1172.6 964.389 1171.97 964.4L1157.4 964.4L1157.4 978.971C1157.39 979.6 1157.13 980.199 1156.68 980.641C1156.23 981.082 1155.63 981.329 1155 981.329C1154.37 981.329 1153.77 981.082 1153.32 980.641C1152.87 980.199 1152.61 979.6 1152.6 978.971L1152.6 964.4L1138.03 964.4C1137.39 964.4 1136.78 964.147 1136.33 963.697C1135.88 963.247 1135.63 962.636 1135.63 962Z" fill="#F23057"/>
</g>
<g filter="url(#filter34_dd_13_91)">
<rect x="1115" y="818" width="80" height="80" rx="8" fill="#E4E9EE"/>
</g>
<rect x="1131" y="855" width="48" height="7" rx="3.5" fill="#F23057"/>
<g filter="url(#filter35_dd_13_91)">
<rect x="1115" y="1026" width="80" height="80" rx="8" fill="#E4E9EE"/>
</g>
<rect x="1134" y="1063" width="42" height="6" rx="3" fill="#F23057"/>
<circle cx="1154" cy="1050" r="5" stroke="#F23057" stroke-width="4"/>
<circle cx="1154" cy="1082" r="5" stroke="#F23057" stroke-width="4"/>
<path d="M1049.09 567H1044.73V538.102L1035.98 541.312V537.375L1048.41 532.711H1049.09V567ZM1083.19 552.445C1083.19 557.523 1082.32 561.297 1080.59 563.766C1078.85 566.234 1076.14 567.469 1072.45 567.469C1068.81 567.469 1066.12 566.266 1064.37 563.859C1062.62 561.438 1061.71 557.828 1061.65 553.031V547.242C1061.65 542.227 1062.52 538.5 1064.25 536.062C1065.98 533.625 1068.7 532.406 1072.41 532.406C1076.08 532.406 1078.78 533.586 1080.52 535.945C1082.25 538.289 1083.14 541.914 1083.19 546.82V552.445ZM1078.85 546.516C1078.85 542.844 1078.34 540.172 1077.3 538.5C1076.27 536.812 1074.64 535.969 1072.41 535.969C1070.19 535.969 1068.57 536.805 1067.55 538.477C1066.54 540.148 1066.02 542.719 1065.98 546.188V553.125C1065.98 556.812 1066.52 559.539 1067.58 561.305C1068.66 563.055 1070.28 563.93 1072.45 563.93C1074.59 563.93 1076.18 563.102 1077.21 561.445C1078.26 559.789 1078.8 557.18 1078.85 553.617V546.516ZM1110.14 552.445C1110.14 557.523 1109.27 561.297 1107.54 563.766C1105.8 566.234 1103.09 567.469 1099.41 567.469C1095.77 567.469 1093.07 566.266 1091.32 563.859C1089.57 561.438 1088.66 557.828 1088.6 553.031V547.242C1088.6 542.227 1089.47 538.5 1091.2 536.062C1092.94 533.625 1095.66 532.406 1099.36 532.406C1103.03 532.406 1105.73 533.586 1107.47 535.945C1109.2 538.289 1110.09 541.914 1110.14 546.82V552.445ZM1105.8 546.516C1105.8 542.844 1105.29 540.172 1104.26 538.5C1103.23 536.812 1101.59 535.969 1099.36 535.969C1097.14 535.969 1095.52 536.805 1094.51 538.477C1093.49 540.148 1092.97 542.719 1092.94 546.188V553.125C1092.94 556.812 1093.47 559.539 1094.53 561.305C1095.61 563.055 1097.23 563.93 1099.41 563.93C1101.55 563.93 1103.13 563.102 1104.16 561.445C1105.21 559.789 1105.76 557.18 1105.8 553.617V546.516ZM1137.09 552.445C1137.09 557.523 1136.23 561.297 1134.49 563.766C1132.76 566.234 1130.05 567.469 1126.36 567.469C1122.72 567.469 1120.02 566.266 1118.27 563.859C1116.52 561.438 1115.62 557.828 1115.55 553.031V547.242C1115.55 542.227 1116.42 538.5 1118.16 536.062C1119.89 533.625 1122.61 532.406 1126.31 532.406C1129.98 532.406 1132.69 533.586 1134.42 535.945C1136.16 538.289 1137.05 541.914 1137.09 546.82V552.445ZM1132.76 546.516C1132.76 542.844 1132.24 540.172 1131.21 538.5C1130.18 536.812 1128.55 535.969 1126.31 535.969C1124.09 535.969 1122.48 536.805 1121.46 538.477C1120.45 540.148 1119.92 542.719 1119.89 546.188V553.125C1119.89 556.812 1120.42 559.539 1121.48 561.305C1122.56 563.055 1124.19 563.93 1126.36 563.93C1128.5 563.93 1130.09 563.102 1131.12 561.445C1132.16 559.789 1132.71 557.18 1132.76 553.617V546.516ZM1201.76 535.312L1187.62 567H1183.08L1197.16 536.438H1178.7V532.875H1201.76V535.312Z" fill="#5E6266"/>
<path d="M1164.02 554.273H1152.59V550.734H1164.02V554.273Z" fill="#F23057"/>
<path d="M1121.94 630C1120.73 631.438 1119.28 632.594 1117.59 633.469C1115.93 634.344 1114.09 634.781 1112.09 634.781C1109.47 634.781 1107.18 634.135 1105.22 632.844C1103.28 631.552 1101.78 629.74 1100.72 627.406C1099.66 625.052 1099.12 622.458 1099.12 619.625C1099.12 616.583 1099.7 613.844 1100.84 611.406C1102.01 608.969 1103.66 607.104 1105.78 605.812C1107.91 604.521 1110.39 603.875 1113.22 603.875C1117.72 603.875 1121.26 605.562 1123.84 608.938C1126.45 612.292 1127.75 616.875 1127.75 622.688V624.375C1127.75 633.229 1126 639.698 1122.5 643.781C1119 647.844 1113.72 649.927 1106.66 650.031H1105.53V645.156H1106.75C1111.52 645.073 1115.19 643.833 1117.75 641.438C1120.31 639.021 1121.71 635.208 1121.94 630ZM1113.03 630C1114.97 630 1116.75 629.406 1118.38 628.219C1120.02 627.031 1121.22 625.562 1121.97 623.812V621.5C1121.97 617.708 1121.15 614.625 1119.5 612.25C1117.85 609.875 1115.77 608.688 1113.25 608.688C1110.71 608.688 1108.67 609.667 1107.12 611.625C1105.58 613.562 1104.81 616.125 1104.81 619.312C1104.81 622.417 1105.55 624.979 1107.03 627C1108.53 629 1110.53 630 1113.03 630ZM1157.88 630C1156.67 631.438 1155.22 632.594 1153.53 633.469C1151.86 634.344 1150.03 634.781 1148.03 634.781C1145.41 634.781 1143.11 634.135 1141.16 632.844C1139.22 631.552 1137.72 629.74 1136.66 627.406C1135.59 625.052 1135.06 622.458 1135.06 619.625C1135.06 616.583 1135.64 613.844 1136.78 611.406C1137.95 608.969 1139.59 607.104 1141.72 605.812C1143.84 604.521 1146.32 603.875 1149.16 603.875C1153.66 603.875 1157.2 605.562 1159.78 608.938C1162.39 612.292 1163.69 616.875 1163.69 622.688V624.375C1163.69 633.229 1161.94 639.698 1158.44 643.781C1154.94 647.844 1149.66 649.927 1142.59 650.031H1141.47V645.156H1142.69C1147.46 645.073 1151.12 643.833 1153.69 641.438C1156.25 639.021 1157.65 635.208 1157.88 630ZM1148.97 630C1150.91 630 1152.69 629.406 1154.31 628.219C1155.96 627.031 1157.16 625.562 1157.91 623.812V621.5C1157.91 617.708 1157.08 614.625 1155.44 612.25C1153.79 609.875 1151.71 608.688 1149.19 608.688C1146.65 608.688 1144.6 609.667 1143.06 611.625C1141.52 613.562 1140.75 616.125 1140.75 619.312C1140.75 622.417 1141.49 624.979 1142.97 627C1144.47 629 1146.47 630 1148.97 630ZM1180.06 624.438H1184.41C1187.14 624.396 1189.28 623.677 1190.84 622.281C1192.41 620.885 1193.19 619 1193.19 616.625C1193.19 611.292 1190.53 608.625 1185.22 608.625C1182.72 608.625 1180.72 609.344 1179.22 610.781C1177.74 612.198 1177 614.083 1177 616.438H1171.22C1171.22 612.833 1172.53 609.844 1175.16 607.469C1177.8 605.073 1181.16 603.875 1185.22 603.875C1189.51 603.875 1192.88 605.01 1195.31 607.281C1197.75 609.552 1198.97 612.708 1198.97 616.75C1198.97 618.729 1198.32 620.646 1197.03 622.5C1195.76 624.354 1194.02 625.74 1191.81 626.656C1194.31 627.448 1196.24 628.76 1197.59 630.594C1198.97 632.427 1199.66 634.667 1199.66 637.312C1199.66 641.396 1198.32 644.635 1195.66 647.031C1192.99 649.427 1189.52 650.625 1185.25 650.625C1180.98 650.625 1177.5 649.469 1174.81 647.156C1172.15 644.844 1170.81 641.792 1170.81 638H1176.62C1176.62 640.396 1177.41 642.312 1178.97 643.75C1180.53 645.188 1182.62 645.906 1185.25 645.906C1188.04 645.906 1190.18 645.177 1191.66 643.719C1193.14 642.26 1193.88 640.167 1193.88 637.438C1193.88 634.792 1193.06 632.76 1191.44 631.344C1189.81 629.927 1187.47 629.198 1184.41 629.156H1180.06V624.438Z" fill="#5E6266"/>
</g>
<defs>
<filter id="filter0_d_13_91" x="86" y="353" width="487" height="798" filterUnits="userSpaceOnUse" color-interpolation-filters="sRGB">
<feFlood flood-opacity="0" result="BackgroundImageFix"/>
<feColorMatrix in="SourceAlpha" type="matrix" values="0 0 0 0 0 0 0 0 0 0 0 0 0 0 0 0 0 0 127 0" result="hardAlpha"/>
<feOffset dx="1" dy="2"/>
<feGaussianBlur stdDeviation="7.5"/>
<feComposite in2="hardAlpha" operator="out"/>
<feColorMatrix type="matrix" values="0 0 0 0 0 0 0 0 0 0 0 0 0 0 0 0 0 0 0.25 0"/>
<feBlend mode="normal" in2="BackgroundImageFix" result="effect1_dropShadow_13_91"/>
<feBlend mode="normal" in="SourceGraphic" in2="effect1_dropShadow_13_91" result="shape"/>
</filter>
<filter id="filter1_dd_13_91" x="221" y="1012" width="110" height="110" filterUnits="userSpaceOnUse" color-interpolation-filters="sRGB">
<feFlood flood-opacity="0" result="BackgroundImageFix"/>
<feColorMatrix in="SourceAlpha" type="matrix" values="0 0 0 0 0 0 0 0 0 0 0 0 0 0 0 0 0 0 127 0" result="hardAlpha"/>
<feOffset dy="2"/>
<feGaussianBlur stdDeviation="5"/>
<feComposite in2="hardAlpha" operator="out"/>
<feColorMatrix type="matrix" values="0 0 0 0 0.898039 0 0 0 0 0.898039 0 0 0 0 0.898039 0 0 0 0.1 0"/>
<feBlend mode="normal" in2="BackgroundImageFix" result="effect1_dropShadow_13_91"/>
<feColorMatrix in="SourceAlpha" type="matrix" values="0 0 0 0 0 0 0 0 0 0 0 0 0 0 0 0 0 0 127 0" result="hardAlpha"/>
<feOffset dy="1"/>
<feGaussianBlur stdDeviation="7.5"/>
<feComposite in2="hardAlpha" operator="out"/>
<feColorMatrix type="matrix" values="0 0 0 0 0 0 0 0 0 0 0 0 0 0 0 0 0 0 0.2 0"/>
<feBlend mode="normal" in2="effect1_dropShadow_13_91" result="effect2_dropShadow_13_91"/>
<feBlend mode="normal" in="SourceGraphic" in2="effect2_dropShadow_13_91" result="shape"/>
</filter>
<filter id="filter2_dd_13_91" x="117" y="1012" width="110" height="110" filterUnits="userSpaceOnUse" color-interpolation-filters="sRGB">
<feFlood flood-opacity="0" result="BackgroundImageFix"/>
<feColorMatrix in="SourceAlpha" type="matrix" values="0 0 0 0 0 0 0 0 0 0 0 0 0 0 0 0 0 0 127 0" result="hardAlpha"/>
<feOffset dy="2"/>
<feGaussianBlur stdDeviation="5"/>
<feComposite in2="hardAlpha" operator="out"/>
<feColorMatrix type="matrix" values="0 0 0 0 0.898039 0 0 0 0 0.898039 0 0 0 0 0.898039 0 0 0 0.1 0"/>
<feBlend mode="normal" in2="BackgroundImageFix" result="effect1_dropShadow_13_91"/>
<feColorMatrix in="SourceAlpha" type="matrix" values="0 0 0 0 0 0 0 0 0 0 0 0 0 0 0 0 0 0 127 0" result="hardAlpha"/>
<feOffset dy="1"/>
<feGaussianBlur stdDeviation="7.5"/>
<feComposite in2="hardAlpha" operator="out"/>
<feColorMatrix type="matrix" values="0 0 0 0 0 0 0 0 0 0 0 0 0 0 0 0 0 0 0.2 0"/>
<feBlend mode="normal" in2="effect1_dropShadow_13_91" result="effect2_dropShadow_13_91"/>
<feBlend mode="normal" in="SourceGraphic" in2="effect2_dropShadow_13_91" result="shape"/>
</filter>
<filter id="filter3_dd_13_91" x="325" y="908" width="110" height="110" filterUnits="userSpaceOnUse" color-interpolation-filters="sRGB">
<feFlood flood-opacity="0" result="BackgroundImageFix"/>
<feColorMatrix in="SourceAlpha" type="matrix" values="0 0 0 0 0 0 0 0 0 0 0 0 0 0 0 0 0 0 127 0" result="hardAlpha"/>
<feOffset dy="2"/>
<feGaussianBlur stdDeviation="5"/>
<feComposite in2="hardAlpha" operator="out"/>
<feColorMatrix type="matrix" values="0 0 0 0 0.898039 0 0 0 0 0.898039 0 0 0 0 0.898039 0 0 0 0.1 0"/>
<feBlend mode="normal" in2="BackgroundImageFix" result="effect1_dropShadow_13_91"/>
<feColorMatrix in="SourceAlpha" type="matrix" values="0 0 0 0 0 0 0 0 0 0 0 0 0 0 0 0 0 0 127 0" result="hardAlpha"/>
<feOffset dy="1"/>
<feGaussianBlur stdDeviation="7.5"/>
<feComposite in2="hardAlpha" operator="out"/>
<feColorMatrix type="matrix" values="0 0 0 0 0 0 0 0 0 0 0 0 0 0 0 0 0 0 0.2 0"/>
<feBlend mode="normal" in2="effect1_dropShadow_13_91" result="effect2_dropShadow_13_91"/>
<feBlend mode="normal" in="SourceGraphic" in2="effect2_dropShadow_13_91" result="shape"/>
</filter>
<filter id="filter4_dd_13_91" x="325" y="1012" width="110" height="110" filterUnits="userSpaceOnUse" color-interpolation-filters="sRGB">
<feFlood flood-opacity="0" result="BackgroundImageFix"/>
<feColorMatrix in="SourceAlpha" type="matrix" values="0 0 0 0 0 0 0 0 0 0 0 0 0 0 0 0 0 0 127 0" result="hardAlpha"/>
<feOffset dy="2"/>
<feGaussianBlur stdDeviation="5"/>
<feComposite in2="hardAlpha" operator="out"/>
<feColorMatrix type="matrix" values="0 0 0 0 0.898039 0 0 0 0 0.898039 0 0 0 0 0.898039 0 0 0 0.1 0"/>
<feBlend mode="normal" in2="BackgroundImageFix" result="effect1_dropShadow_13_91"/>
<feColorMatrix in="SourceAlpha" type="matrix" values="0 0 0 0 0 0 0 0 0 0 0 0 0 0 0 0 0 0 127 0" result="hardAlpha"/>
<feOffset dy="1"/>
<feGaussianBlur stdDeviation="7.5"/>
<feComposite in2="hardAlpha" operator="out"/>
<feColorMatrix type="matrix" values="0 0 0 0 0 0 0 0 0 0 0 0 0 0 0 0 0 0 0.2 0"/>
<feBlend mode="normal" in2="effect1_dropShadow_13_91" result="effect2_dropShadow_13_91"/>
<feBlend mode="normal" in="SourceGraphic" in2="effect2_dropShadow_13_91" result="shape"/>
</filter>
<filter id="filter5_dd_13_91" x="117" y="908" width="110" height="110" filterUnits="userSpaceOnUse" color-interpolation-filters="sRGB">
<feFlood flood-opacity="0" result="BackgroundImageFix"/>
<feColorMatrix in="SourceAlpha" type="matrix" values="0 0 0 0 0 0 0 0 0 0 0 0 0 0 0 0 0 0 127 0" result="hardAlpha"/>
<feOffset dy="2"/>
<feGaussianBlur stdDeviation="5"/>
<feComposite in2="hardAlpha" operator="out"/>
<feColorMatrix type="matrix" values="0 0 0 0 0.898039 0 0 0 0 0.898039 0 0 0 0 0.898039 0 0 0 0.1 0"/>
<feBlend mode="normal" in2="BackgroundImageFix" result="effect1_dropShadow_13_91"/>
<feColorMatrix in="SourceAlpha" type="matrix" values="0 0 0 0 0 0 0 0 0 0 0 0 0 0 0 0 0 0 127 0" result="hardAlpha"/>
<feOffset dy="1"/>
<feGaussianBlur stdDeviation="7.5"/>
<feComposite in2="hardAlpha" operator="out"/>
<feColorMatrix type="matrix" values="0 0 0 0 0 0 0 0 0 0 0 0 0 0 0 0 0 0 0.2 0"/>
<feBlend mode="normal" in2="effect1_dropShadow_13_91" result="effect2_dropShadow_13_91"/>
<feBlend mode="normal" in="SourceGraphic" in2="effect2_dropShadow_13_91" result="shape"/>
</filter>
<filter id="filter6_dd_13_91" x="221" y="908" width="110" height="110" filterUnits="userSpaceOnUse" color-interpolation-filters="sRGB">
<feFlood flood-opacity="0" result="BackgroundImageFix"/>
<feColorMatrix in="SourceAlpha" type="matrix" values="0 0 0 0 0 0 0 0 0 0 0 0 0 0 0 0 0 0 127 0" result="hardAlpha"/>
<feOffset dy="2"/>
<feGaussianBlur stdDeviation="5"/>
<feComposite in2="hardAlpha" operator="out"/>
<feColorMatrix type="matrix" values="0 0 0 0 0.898039 0 0 0 0 0.898039 0 0 0 0 0.898039 0 0 0 0.1 0"/>
<feBlend mode="normal" in2="BackgroundImageFix" result="effect1_dropShadow_13_91"/>
<feColorMatrix in="SourceAlpha" type="matrix" values="0 0 0 0 0 0 0 0 0 0 0 0 0 0 0 0 0 0 127 0" result="hardAlpha"/>
<feOffset dy="1"/>
<feGaussianBlur stdDeviation="7.5"/>
<feComposite in2="hardAlpha" operator="out"/>
<feColorMatrix type="matrix" values="0 0 0 0 0 0 0 0 0 0 0 0 0 0 0 0 0 0 0.2 0"/>
<feBlend mode="normal" in2="effect1_dropShadow_13_91" result="effect2_dropShadow_13_91"/>
<feBlend mode="normal" in="SourceGraphic" in2="effect2_dropShadow_13_91" result="shape"/>
</filter>
<filter id="filter7_dd_13_91" x="118" y="804" width="110" height="110" filterUnits="userSpaceOnUse" color-interpolation-filters="sRGB">
<feFlood flood-opacity="0" result="BackgroundImageFix"/>
<feColorMatrix in="SourceAlpha" type="matrix" values="0 0 0 0 0 0 0 0 0 0 0 0 0 0 0 0 0 0 127 0" result="hardAlpha"/>
<feOffset dy="2"/>
<feGaussianBlur stdDeviation="5"/>
<feComposite in2="hardAlpha" operator="out"/>
<feColorMatrix type="matrix" values="0 0 0 0 0.898039 0 0 0 0 0.898039 0 0 0 0 0.898039 0 0 0 0.1 0"/>
<feBlend mode="normal" in2="BackgroundImageFix" result="effect1_dropShadow_13_91"/>
<feColorMatrix in="SourceAlpha" type="matrix" values="0 0 0 0 0 0 0 0 0 0 0 0 0 0 0 0 0 0 127 0" result="hardAlpha"/>
<feOffset dy="1"/>
<feGaussianBlur stdDeviation="7.5"/>
<feComposite in2="hardAlpha" operator="out"/>
<feColorMatrix type="matrix" values="0 0 0 0 0 0 0 0 0 0 0 0 0 0 0 0 0 0 0.2 0"/>
<feBlend mode="normal" in2="effect1_dropShadow_13_91" result="effect2_dropShadow_13_91"/>
<feBlend mode="normal" in="SourceGraphic" in2="effect2_dropShadow_13_91" result="shape"/>
</filter>
<filter id="filter8_dd_13_91" x="222" y="804" width="110" height="110" filterUnits="userSpaceOnUse" color-interpolation-filters="sRGB">
<feFlood flood-opacity="0" result="BackgroundImageFix"/>
<feColorMatrix in="SourceAlpha" type="matrix" values="0 0 0 0 0 0 0 0 0 0 0 0 0 0 0 0 0 0 127 0" result="hardAlpha"/>
<feOffset dy="2"/>
<feGaussianBlur stdDeviation="5"/>
<feComposite in2="hardAlpha" operator="out"/>
<feColorMatrix type="matrix" values="0 0 0 0 0.898039 0 0 0 0 0.898039 0 0 0 0 0.898039 0 0 0 0.1 0"/>
<feBlend mode="normal" in2="BackgroundImageFix" result="effect1_dropShadow_13_91"/>
<feColorMatrix in="SourceAlpha" type="matrix" values="0 0 0 0 0 0 0 0 0 0 0 0 0 0 0 0 0 0 127 0" result="hardAlpha"/>
<feOffset dy="1"/>
<feGaussianBlur stdDeviation="7.5"/>
<feComposite in2="hardAlpha" operator="out"/>
<feColorMatrix type="matrix" values="0 0 0 0 0 0 0 0 0 0 0 0 0 0 0 0 0 0 0.2 0"/>
<feBlend mode="normal" in2="effect1_dropShadow_13_91" result="effect2_dropShadow_13_91"/>
<feBlend mode="normal" in="SourceGraphic" in2="effect2_dropShadow_13_91" result="shape"/>
</filter>
<filter id="filter9_dd_13_91" x="326" y="804" width="110" height="110" filterUnits="userSpaceOnUse" color-interpolation-filters="sRGB">
<feFlood flood-opacity="0" result="BackgroundImageFix"/>
<feColorMatrix in="SourceAlpha" type="matrix" values="0 0 0 0 0 0 0 0 0 0 0 0 0 0 0 0 0 0 127 0" result="hardAlpha"/>
<feOffset dy="2"/>
<feGaussianBlur stdDeviation="5"/>
<feComposite in2="hardAlpha" operator="out"/>
<feColorMatrix type="matrix" values="0 0 0 0 0.898039 0 0 0 0 0.898039 0 0 0 0 0.898039 0 0 0 0.1 0"/>
<feBlend mode="normal" in2="BackgroundImageFix" result="effect1_dropShadow_13_91"/>
<feColorMatrix in="SourceAlpha" type="matrix" values="0 0 0 0 0 0 0 0 0 0 0 0 0 0 0 0 0 0 127 0" result="hardAlpha"/>
<feOffset dy="1"/>
<feGaussianBlur stdDeviation="7.5"/>
<feComposite in2="hardAlpha" operator="out"/>
<feColorMatrix type="matrix" values="0 0 0 0 0 0 0 0 0 0 0 0 0 0 0 0 0 0 0.2 0"/>
<feBlend mode="normal" in2="effect1_dropShadow_13_91" result="effect2_dropShadow_13_91"/>
<feBlend mode="normal" in="SourceGraphic" in2="effect2_dropShadow_13_91" result="shape"/>
</filter>
<filter id="filter10_dd_13_91" x="429" y="700" width="110" height="110" filterUnits="userSpaceOnUse" color-interpolation-filters="sRGB">
<feFlood flood-opacity="0" result="BackgroundImageFix"/>
<feColorMatrix in="SourceAlpha" type="matrix" values="0 0 0 0 0 0 0 0 0 0 0 0 0 0 0 0 0 0 127 0" result="hardAlpha"/>
<feOffset dy="2"/>
<feGaussianBlur stdDeviation="5"/>
<feComposite in2="hardAlpha" operator="out"/>
<feColorMatrix type="matrix" values="0 0 0 0 0.898039 0 0 0 0 0.898039 0 0 0 0 0.898039 0 0 0 0.1 0"/>
<feBlend mode="normal" in2="BackgroundImageFix" result="effect1_dropShadow_13_91"/>
<feColorMatrix in="SourceAlpha" type="matrix" values="0 0 0 0 0 0 0 0 0 0 0 0 0 0 0 0 0 0 127 0" result="hardAlpha"/>
<feOffset dy="1"/>
<feGaussianBlur stdDeviation="7.5"/>
<feComposite in2="hardAlpha" operator="out"/>
<feColorMatrix type="matrix" values="0 0 0 0 0 0 0 0 0 0 0 0 0 0 0 0 0 0 0.2 0"/>
<feBlend mode="normal" in2="effect1_dropShadow_13_91" result="effect2_dropShadow_13_91"/>
<feBlend mode="normal" in="SourceGraphic" in2="effect2_dropShadow_13_91" result="shape"/>
</filter>
<filter id="filter11_dd_13_91" x="325" y="700" width="110" height="110" filterUnits="userSpaceOnUse" color-interpolation-filters="sRGB">
<feFlood flood-opacity="0" result="BackgroundImageFix"/>
<feColorMatrix in="SourceAlpha" type="matrix" values="0 0 0 0 0 0 0 0 0 0 0 0 0 0 0 0 0 0 127 0" result="hardAlpha"/>
<feOffset dy="2"/>
<feGaussianBlur stdDeviation="5"/>
<feComposite in2="hardAlpha" operator="out"/>
<feColorMatrix type="matrix" values="0 0 0 0 0.898039 0 0 0 0 0.898039 0 0 0 0 0.898039 0 0 0 0.1 0"/>
<feBlend mode="normal" in2="BackgroundImageFix" result="effect1_dropShadow_13_91"/>
<feColorMatrix in="SourceAlpha" type="matrix" values="0 0 0 0 0 0 0 0 0 0 0 0 0 0 0 0 0 0 127 0" result="hardAlpha"/>
<feOffset dy="1"/>
<feGaussianBlur stdDeviation="7.5"/>
<feComposite in2="hardAlpha" operator="out"/>
<feColorMatrix type="matrix" values="0 0 0 0 0 0 0 0 0 0 0 0 0 0 0 0 0 0 0.2 0"/>
<feBlend mode="normal" in2="effect1_dropShadow_13_91" result="effect2_dropShadow_13_91"/>
<feBlend mode="normal" in="SourceGraphic" in2="effect2_dropShadow_13_91" result="shape"/>
</filter>
<filter id="filter12_dd_13_91" x="221" y="700" width="110" height="110" filterUnits="userSpaceOnUse" color-interpolation-filters="sRGB">
<feFlood flood-opacity="0" result="BackgroundImageFix"/>
<feColorMatrix in="SourceAlpha" type="matrix" values="0 0 0 0 0 0 0 0 0 0 0 0 0 0 0 0 0 0 127 0" result="hardAlpha"/>
<feOffset dy="2"/>
<feGaussianBlur stdDeviation="5"/>
<feComposite in2="hardAlpha" operator="out"/>
<feColorMatrix type="matrix" values="0 0 0 0 0.898039 0 0 0 0 0.898039 0 0 0 0 0.898039 0 0 0 0.1 0"/>
<feBlend mode="normal" in2="BackgroundImageFix" result="effect1_dropShadow_13_91"/>
<feColorMatrix in="SourceAlpha" type="matrix" values="0 0 0 0 0 0 0 0 0 0 0 0 0 0 0 0 0 0 127 0" result="hardAlpha"/>
<feOffset dy="1"/>
<feGaussianBlur stdDeviation="7.5"/>
<feComposite in2="hardAlpha" operator="out"/>
<feColorMatrix type="matrix" values="0 0 0 0 0 0 0 0 0 0 0 0 0 0 0 0 0 0 0.2 0"/>
<feBlend mode="normal" in2="effect1_dropShadow_13_91" result="effect2_dropShadow_13_91"/>
<feBlend mode="normal" in="SourceGraphic" in2="effect2_dropShadow_13_91" result="shape"/>
</filter>
<filter id="filter13_dd_13_91" x="117" y="700" width="110" height="110" filterUnits="userSpaceOnUse" color-interpolation-filters="sRGB">
<feFlood flood-opacity="0" result="BackgroundImageFix"/>
<feColorMatrix in="SourceAlpha" type="matrix" values="0 0 0 0 0 0 0 0 0 0 0 0 0 0 0 0 0 0 127 0" result="hardAlpha"/>
<feOffset dy="2"/>
<feGaussianBlur stdDeviation="5"/>
<feComposite in2="hardAlpha" operator="out"/>
<feColorMatrix type="matrix" values="0 0 0 0 0.898039 0 0 0 0 0.898039 0 0 0 0 0.898039 0 0 0 0.1 0"/>
<feBlend mode="normal" in2="BackgroundImageFix" result="effect1_dropShadow_13_91"/>
<feColorMatrix in="SourceAlpha" type="matrix" values="0 0 0 0 0 0 0 0 0 0 0 0 0 0 0 0 0 0 127 0" result="hardAlpha"/>
<feOffset dy="1"/>
<feGaussianBlur stdDeviation="7.5"/>
<feComposite in2="hardAlpha" operator="out"/>
<feColorMatrix type="matrix" values="0 0 0 0 0 0 0 0 0 0 0 0 0 0 0 0 0 0 0.2 0"/>
<feBlend mode="normal" in2="effect1_dropShadow_13_91" result="effect2_dropShadow_13_91"/>
<feBlend mode="normal" in="SourceGraphic" in2="effect2_dropShadow_13_91" result="shape"/>
</filter>
<filter id="filter14_dd_13_91" x="430" y="908" width="110" height="110" filterUnits="userSpaceOnUse" color-interpolation-filters="sRGB">
<feFlood flood-opacity="0" result="BackgroundImageFix"/>
<feColorMatrix in="SourceAlpha" type="matrix" values="0 0 0 0 0 0 0 0 0 0 0 0 0 0 0 0 0 0 127 0" result="hardAlpha"/>
<feOffset dy="2"/>
<feGaussianBlur stdDeviation="5"/>
<feComposite in2="hardAlpha" operator="out"/>
<feColorMatrix type="matrix" values="0 0 0 0 0.898039 0 0 0 0 0.898039 0 0 0 0 0.898039 0 0 0 0.1 0"/>
<feBlend mode="normal" in2="BackgroundImageFix" result="effect1_dropShadow_13_91"/>
<feColorMatrix in="SourceAlpha" type="matrix" values="0 0 0 0 0 0 0 0 0 0 0 0 0 0 0 0 0 0 127 0" result="hardAlpha"/>
<feOffset dy="1"/>
<feGaussianBlur stdDeviation="7.5"/>
<feComposite in2="hardAlpha" operator="out"/>
<feColorMatrix type="matrix" values="0 0 0 0 0 0 0 0 0 0 0 0 0 0 0 0 0 0 0.2 0"/>
<feBlend mode="normal" in2="effect1_dropShadow_13_91" result="effect2_dropShadow_13_91"/>
<feBlend mode="normal" in="SourceGraphic" in2="effect2_dropShadow_13_91" result="shape"/>
</filter>
<filter id="filter15_dd_13_91" x="429" y="804" width="110" height="110" filterUnits="userSpaceOnUse" color-interpolation-filters="sRGB">
<feFlood flood-opacity="0" result="BackgroundImageFix"/>
<feColorMatrix in="SourceAlpha" type="matrix" values="0 0 0 0 0 0 0 0 0 0 0 0 0 0 0 0 0 0 127 0" result="hardAlpha"/>
<feOffset dy="2"/>
<feGaussianBlur stdDeviation="5"/>
<feComposite in2="hardAlpha" operator="out"/>
<feColorMatrix type="matrix" values="0 0 0 0 0.898039 0 0 0 0 0.898039 0 0 0 0 0.898039 0 0 0 0.1 0"/>
<feBlend mode="normal" in2="BackgroundImageFix" result="effect1_dropShadow_13_91"/>
<feColorMatrix in="SourceAlpha" type="matrix" values="0 0 0 0 0 0 0 0 0 0 0 0 0 0 0 0 0 0 127 0" result="hardAlpha"/>
<feOffset dy="1"/>
<feGaussianBlur stdDeviation="7.5"/>
<feComposite in2="hardAlpha" operator="out"/>
<feColorMatrix type="matrix" values="0 0 0 0 0 0 0 0 0 0 0 0 0 0 0 0 0 0 0.2 0"/>
<feBlend mode="normal" in2="effect1_dropShadow_13_91" result="effect2_dropShadow_13_91"/>
<feBlend mode="normal" in="SourceGraphic" in2="effect2_dropShadow_13_91" result="shape"/>
</filter>
<filter id="filter16_dd_13_91" x="429" y="1012" width="110" height="110" filterUnits="userSpaceOnUse" color-interpolation-filters="sRGB">
<feFlood flood-opacity="0" result="BackgroundImageFix"/>
<feColorMatrix in="SourceAlpha" type="matrix" values="0 0 0 0 0 0 0 0 0 0 0 0 0 0 0 0 0 0 127 0" result="hardAlpha"/>
<feOffset dy="2"/>
<feGaussianBlur stdDeviation="5"/>
<feComposite in2="hardAlpha" operator="out"/>
<feColorMatrix type="matrix" values="0 0 0 0 0.898039 0 0 0 0 0.898039 0 0 0 0 0.898039 0 0 0 0.1 0"/>
<feBlend mode="normal" in2="BackgroundImageFix" result="effect1_dropShadow_13_91"/>
<feColorMatrix in="SourceAlpha" type="matrix" values="0 0 0 0 0 0 0 0 0 0 0 0 0 0 0 0 0 0 127 0" result="hardAlpha"/>
<feOffset dy="1"/>
<feGaussianBlur stdDeviation="7.5"/>
<feComposite in2="hardAlpha" operator="out"/>
<feColorMatrix type="matrix" values="0 0 0 0 0 0 0 0 0 0 0 0 0 0 0 0 0 0 0.2 0"/>
<feBlend mode="normal" in2="effect1_dropShadow_13_91" result="effect2_dropShadow_13_91"/>
<feBlend mode="normal" in="SourceGraphic" in2="effect2_dropShadow_13_91" result="shape"/>
</filter>
<filter id="filter17_d_13_91" x="270" y="365" width="116" height="50" filterUnits="userSpaceOnUse" color-interpolation-filters="sRGB">
<feFlood flood-opacity="0" result="BackgroundImageFix"/>
<feColorMatrix in="SourceAlpha" type="matrix" values="0 0 0 0 0 0 0 0 0 0 0 0 0 0 0 0 0 0 127 0" result="hardAlpha"/>
<feMorphology radius="1" operator="erode" in="SourceAlpha" result="effect1_dropShadow_13_91"/>
<feOffset dy="2"/>
<feGaussianBlur stdDeviation="2"/>
<feComposite in2="hardAlpha" operator="out"/>
<feColorMatrix type="matrix" values="0 0 0 0 0 0 0 0 0 0 0 0 0 0 0 0 0 0 0.2 0"/>
<feBlend mode="normal" in2="BackgroundImageFix" result="effect1_dropShadow_13_91"/>
<feBlend mode="normal" in="SourceGraphic" in2="effect1_dropShadow_13_91" result="shape"/>
</filter>
<filter id="filter18_d_13_91" x="757" y="353" width="487" height="798" filterUnits="userSpaceOnUse" color-interpolation-filters="sRGB">
<feFlood flood-opacity="0" result="BackgroundImageFix"/>
<feColorMatrix in="SourceAlpha" type="matrix" values="0 0 0 0 0 0 0 0 0 0 0 0 0 0 0 0 0 0 127 0" result="hardAlpha"/>
<feOffset dx="1" dy="2"/>
<feGaussianBlur stdDeviation="7.5"/>
<feComposite in2="hardAlpha" operator="out"/>
<feColorMatrix type="matrix" values="0 0 0 0 0 0 0 0 0 0 0 0 0 0 0 0 0 0 0.25 0"/>
<feBlend mode="normal" in2="BackgroundImageFix" result="effect1_dropShadow_13_91"/>
<feBlend mode="normal" in="SourceGraphic" in2="effect1_dropShadow_13_91" result="shape"/>
</filter>
<filter id="filter19_d_13_91" x="942" y="365" width="116" height="50" filterUnits="userSpaceOnUse" color-interpolation-filters="sRGB">
<feFlood flood-opacity="0" result="BackgroundImageFix"/>
<feColorMatrix in="SourceAlpha" type="matrix" values="0 0 0 0 0 0 0 0 0 0 0 0 0 0 0 0 0 0 127 0" result="hardAlpha"/>
<feMorphology radius="1" operator="erode" in="SourceAlpha" result="effect1_dropShadow_13_91"/>
<feOffset dy="2"/>
<feGaussianBlur stdDeviation="2"/>
<feComposite in2="hardAlpha" operator="out"/>
<feColorMatrix type="matrix" values="0 0 0 0 0 0 0 0 0 0 0 0 0 0 0 0 0 0 0.15 0"/>
<feBlend mode="normal" in2="BackgroundImageFix" result="effect1_dropShadow_13_91"/>
<feBlend mode="normal" in="SourceGraphic" in2="effect1_dropShadow_13_91" result="shape"/>
</filter>
<filter id="filter20_dd_13_91" x="892" y="1012" width="110" height="110" filterUnits="userSpaceOnUse" color-interpolation-filters="sRGB">
<feFlood flood-opacity="0" result="BackgroundImageFix"/>
<feColorMatrix in="SourceAlpha" type="matrix" values="0 0 0 0 0 0 0 0 0 0 0 0 0 0 0 0 0 0 127 0" result="hardAlpha"/>
<feOffset dy="2"/>
<feGaussianBlur stdDeviation="5"/>
<feComposite in2="hardAlpha" operator="out"/>
<feColorMatrix type="matrix" values="0 0 0 0 0.898039 0 0 0 0 0.898039 0 0 0 0 0.898039 0 0 0 0.1 0"/>
<feBlend mode="normal" in2="BackgroundImageFix" result="effect1_dropShadow_13_91"/>
<feColorMatrix in="SourceAlpha" type="matrix" values="0 0 0 0 0 0 0 0 0 0 0 0 0 0 0 0 0 0 127 0" result="hardAlpha"/>
<feOffset dy="1"/>
<feGaussianBlur stdDeviation="7.5"/>
<feComposite in2="hardAlpha" operator="out"/>
<feColorMatrix type="matrix" values="0 0 0 0 0 0 0 0 0 0 0 0 0 0 0 0 0 0 0.2 0"/>
<feBlend mode="normal" in2="effect1_dropShadow_13_91" result="effect2_dropShadow_13_91"/>
<feBlend mode="normal" in="SourceGraphic" in2="effect2_dropShadow_13_91" result="shape"/>
</filter>
<filter id="filter21_dd_13_91" x="788" y="1012" width="110" height="110" filterUnits="userSpaceOnUse" color-interpolation-filters="sRGB">
<feFlood flood-opacity="0" result="BackgroundImageFix"/>
<feColorMatrix in="SourceAlpha" type="matrix" values="0 0 0 0 0 0 0 0 0 0 0 0 0 0 0 0 0 0 127 0" result="hardAlpha"/>
<feOffset dy="2"/>
<feGaussianBlur stdDeviation="5"/>
<feComposite in2="hardAlpha" operator="out"/>
<feColorMatrix type="matrix" values="0 0 0 0 0.898039 0 0 0 0 0.898039 0 0 0 0 0.898039 0 0 0 0.1 0"/>
<feBlend mode="normal" in2="BackgroundImageFix" result="effect1_dropShadow_13_91"/>
<feColorMatrix in="SourceAlpha" type="matrix" values="0 0 0 0 0 0 0 0 0 0 0 0 0 0 0 0 0 0 127 0" result="hardAlpha"/>
<feOffset dy="1"/>
<feGaussianBlur stdDeviation="7.5"/>
<feComposite in2="hardAlpha" operator="out"/>
<feColorMatrix type="matrix" values="0 0 0 0 0 0 0 0 0 0 0 0 0 0 0 0 0 0 0.2 0"/>
<feBlend mode="normal" in2="effect1_dropShadow_13_91" result="effect2_dropShadow_13_91"/>
<feBlend mode="normal" in="SourceGraphic" in2="effect2_dropShadow_13_91" result="shape"/>
</filter>
<filter id="filter22_dd_13_91" x="996" y="908" width="110" height="110" filterUnits="userSpaceOnUse" color-interpolation-filters="sRGB">
<feFlood flood-opacity="0" result="BackgroundImageFix"/>
<feColorMatrix in="SourceAlpha" type="matrix" values="0 0 0 0 0 0 0 0 0 0 0 0 0 0 0 0 0 0 127 0" result="hardAlpha"/>
<feOffset dy="2"/>
<feGaussianBlur stdDeviation="5"/>
<feComposite in2="hardAlpha" operator="out"/>
<feColorMatrix type="matrix" values="0 0 0 0 0.898039 0 0 0 0 0.898039 0 0 0 0 0.898039 0 0 0 0.1 0"/>
<feBlend mode="normal" in2="BackgroundImageFix" result="effect1_dropShadow_13_91"/>
<feColorMatrix in="SourceAlpha" type="matrix" values="0 0 0 0 0 0 0 0 0 0 0 0 0 0 0 0 0 0 127 0" result="hardAlpha"/>
<feOffset dy="1"/>
<feGaussianBlur stdDeviation="7.5"/>
<feComposite in2="hardAlpha" operator="out"/>
<feColorMatrix type="matrix" values="0 0 0 0 0 0 0 0 0 0 0 0 0 0 0 0 0 0 0.2 0"/>
<feBlend mode="normal" in2="effect1_dropShadow_13_91" result="effect2_dropShadow_13_91"/>
<feBlend mode="normal" in="SourceGraphic" in2="effect2_dropShadow_13_91" result="shape"/>
</filter>
<filter id="filter23_dd_13_91" x="996" y="1012" width="110" height="110" filterUnits="userSpaceOnUse" color-interpolation-filters="sRGB">
<feFlood flood-opacity="0" result="BackgroundImageFix"/>
<feColorMatrix in="SourceAlpha" type="matrix" values="0 0 0 0 0 0 0 0 0 0 0 0 0 0 0 0 0 0 127 0" result="hardAlpha"/>
<feOffset dy="2"/>
<feGaussianBlur stdDeviation="5"/>
<feComposite in2="hardAlpha" operator="out"/>
<feColorMatrix type="matrix" values="0 0 0 0 0.898039 0 0 0 0 0.898039 0 0 0 0 0.898039 0 0 0 0.1 0"/>
<feBlend mode="normal" in2="BackgroundImageFix" result="effect1_dropShadow_13_91"/>
<feColorMatrix in="SourceAlpha" type="matrix" values="0 0 0 0 0 0 0 0 0 0 0 0 0 0 0 0 0 0 127 0" result="hardAlpha"/>
<feOffset dy="1"/>
<feGaussianBlur stdDeviation="7.5"/>
<feComposite in2="hardAlpha" operator="out"/>
<feColorMatrix type="matrix" values="0 0 0 0 0 0 0 0 0 0 0 0 0 0 0 0 0 0 0.2 0"/>
<feBlend mode="normal" in2="effect1_dropShadow_13_91" result="effect2_dropShadow_13_91"/>
<feBlend mode="normal" in="SourceGraphic" in2="effect2_dropShadow_13_91" result="shape"/>
</filter>
<filter id="filter24_dd_13_91" x="788" y="908" width="110" height="110" filterUnits="userSpaceOnUse" color-interpolation-filters="sRGB">
<feFlood flood-opacity="0" result="BackgroundImageFix"/>
<feColorMatrix in="SourceAlpha" type="matrix" values="0 0 0 0 0 0 0 0 0 0 0 0 0 0 0 0 0 0 127 0" result="hardAlpha"/>
<feOffset dy="2"/>
<feGaussianBlur stdDeviation="5"/>
<feComposite in2="hardAlpha" operator="out"/>
<feColorMatrix type="matrix" values="0 0 0 0 0.898039 0 0 0 0 0.898039 0 0 0 0 0.898039 0 0 0 0.1 0"/>
<feBlend mode="normal" in2="BackgroundImageFix" result="effect1_dropShadow_13_91"/>
<feColorMatrix in="SourceAlpha" type="matrix" values="0 0 0 0 0 0 0 0 0 0 0 0 0 0 0 0 0 0 127 0" result="hardAlpha"/>
<feOffset dy="1"/>
<feGaussianBlur stdDeviation="7.5"/>
<feComposite in2="hardAlpha" operator="out"/>
<feColorMatrix type="matrix" values="0 0 0 0 0 0 0 0 0 0 0 0 0 0 0 0 0 0 0.2 0"/>
<feBlend mode="normal" in2="effect1_dropShadow_13_91" result="effect2_dropShadow_13_91"/>
<feBlend mode="normal" in="SourceGraphic" in2="effect2_dropShadow_13_91" result="shape"/>
</filter>
<filter id="filter25_dd_13_91" x="892" y="908" width="110" height="110" filterUnits="userSpaceOnUse" color-interpolation-filters="sRGB">
<feFlood flood-opacity="0" result="BackgroundImageFix"/>
<feColorMatrix in="SourceAlpha" type="matrix" values="0 0 0 0 0 0 0 0 0 0 0 0 0 0 0 0 0 0 127 0" result="hardAlpha"/>
<feOffset dy="2"/>
<feGaussianBlur stdDeviation="5"/>
<feComposite in2="hardAlpha" operator="out"/>
<feColorMatrix type="matrix" values="0 0 0 0 0.898039 0 0 0 0 0.898039 0 0 0 0 0.898039 0 0 0 0.1 0"/>
<feBlend mode="normal" in2="BackgroundImageFix" result="effect1_dropShadow_13_91"/>
<feColorMatrix in="SourceAlpha" type="matrix" values="0 0 0 0 0 0 0 0 0 0 0 0 0 0 0 0 0 0 127 0" result="hardAlpha"/>
<feOffset dy="1"/>
<feGaussianBlur stdDeviation="7.5"/>
<feComposite in2="hardAlpha" operator="out"/>
<feColorMatrix type="matrix" values="0 0 0 0 0 0 0 0 0 0 0 0 0 0 0 0 0 0 0.2 0"/>
<feBlend mode="normal" in2="effect1_dropShadow_13_91" result="effect2_dropShadow_13_91"/>
<feBlend mode="normal" in="SourceGraphic" in2="effect2_dropShadow_13_91" result="shape"/>
</filter>
<filter id="filter26_dd_13_91" x="789" y="804" width="110" height="110" filterUnits="userSpaceOnUse" color-interpolation-filters="sRGB">
<feFlood flood-opacity="0" result="BackgroundImageFix"/>
<feColorMatrix in="SourceAlpha" type="matrix" values="0 0 0 0 0 0 0 0 0 0 0 0 0 0 0 0 0 0 127 0" result="hardAlpha"/>
<feOffset dy="2"/>
<feGaussianBlur stdDeviation="5"/>
<feComposite in2="hardAlpha" operator="out"/>
<feColorMatrix type="matrix" values="0 0 0 0 0.898039 0 0 0 0 0.898039 0 0 0 0 0.898039 0 0 0 0.1 0"/>
<feBlend mode="normal" in2="BackgroundImageFix" result="effect1_dropShadow_13_91"/>
<feColorMatrix in="SourceAlpha" type="matrix" values="0 0 0 0 0 0 0 0 0 0 0 0 0 0 0 0 0 0 127 0" result="hardAlpha"/>
<feOffset dy="1"/>
<feGaussianBlur stdDeviation="7.5"/>
<feComposite in2="hardAlpha" operator="out"/>
<feColorMatrix type="matrix" values="0 0 0 0 0 0 0 0 0 0 0 0 0 0 0 0 0 0 0.2 0"/>
<feBlend mode="normal" in2="effect1_dropShadow_13_91" result="effect2_dropShadow_13_91"/>
<feBlend mode="normal" in="SourceGraphic" in2="effect2_dropShadow_13_91" result="shape"/>
</filter>
<filter id="filter27_dd_13_91" x="893" y="804" width="110" height="110" filterUnits="userSpaceOnUse" color-interpolation-filters="sRGB">
<feFlood flood-opacity="0" result="BackgroundImageFix"/>
<feColorMatrix in="SourceAlpha" type="matrix" values="0 0 0 0 0 0 0 0 0 0 0 0 0 0 0 0 0 0 127 0" result="hardAlpha"/>
<feOffset dy="2"/>
<feGaussianBlur stdDeviation="5"/>
<feComposite in2="hardAlpha" operator="out"/>
<feColorMatrix type="matrix" values="0 0 0 0 0.898039 0 0 0 0 0.898039 0 0 0 0 0.898039 0 0 0 0.1 0"/>
<feBlend mode="normal" in2="BackgroundImageFix" result="effect1_dropShadow_13_91"/>
<feColorMatrix in="SourceAlpha" type="matrix" values="0 0 0 0 0 0 0 0 0 0 0 0 0 0 0 0 0 0 127 0" result="hardAlpha"/>
<feOffset dy="1"/>
<feGaussianBlur stdDeviation="7.5"/>
<feComposite in2="hardAlpha" operator="out"/>
<feColorMatrix type="matrix" values="0 0 0 0 0 0 0 0 0 0 0 0 0 0 0 0 0 0 0.2 0"/>
<feBlend mode="normal" in2="effect1_dropShadow_13_91" result="effect2_dropShadow_13_91"/>
<feBlend mode="normal" in="SourceGraphic" in2="effect2_dropShadow_13_91" result="shape"/>
</filter>
<filter id="filter28_dd_13_91" x="997" y="804" width="110" height="110" filterUnits="userSpaceOnUse" color-interpolation-filters="sRGB">
<feFlood flood-opacity="0" result="BackgroundImageFix"/>
<feColorMatrix in="SourceAlpha" type="matrix" values="0 0 0 0 0 0 0 0 0 0 0 0 0 0 0 0 0 0 127 0" result="hardAlpha"/>
<feOffset dy="2"/>
<feGaussianBlur stdDeviation="5"/>
<feComposite in2="hardAlpha" operator="out"/>
<feColorMatrix type="matrix" values="0 0 0 0 0.898039 0 0 0 0 0.898039 0 0 0 0 0.898039 0 0 0 0.1 0"/>
<feBlend mode="normal" in2="BackgroundImageFix" result="effect1_dropShadow_13_91"/>
<feColorMatrix in="SourceAlpha" type="matrix" values="0 0 0 0 0 0 0 0 0 0 0 0 0 0 0 0 0 0 127 0" result="hardAlpha"/>
<feOffset dy="1"/>
<feGaussianBlur stdDeviation="7.5"/>
<feComposite in2="hardAlpha" operator="out"/>
<feColorMatrix type="matrix" values="0 0 0 0 0 0 0 0 0 0 0 0 0 0 0 0 0 0 0.2 0"/>
<feBlend mode="normal" in2="effect1_dropShadow_13_91" result="effect2_dropShadow_13_91"/>
<feBlend mode="normal" in="SourceGraphic" in2="effect2_dropShadow_13_91" result="shape"/>
</filter>
<filter id="filter29_dd_13_91" x="1100" y="700" width="110" height="110" filterUnits="userSpaceOnUse" color-interpolation-filters="sRGB">
<feFlood flood-opacity="0" result="BackgroundImageFix"/>
<feColorMatrix in="SourceAlpha" type="matrix" values="0 0 0 0 0 0 0 0 0 0 0 0 0 0 0 0 0 0 127 0" result="hardAlpha"/>
<feOffset dy="2"/>
<feGaussianBlur stdDeviation="5"/>
<feComposite in2="hardAlpha" operator="out"/>
<feColorMatrix type="matrix" values="0 0 0 0 0.898039 0 0 0 0 0.898039 0 0 0 0 0.898039 0 0 0 0.1 0"/>
<feBlend mode="normal" in2="BackgroundImageFix" result="effect1_dropShadow_13_91"/>
<feColorMatrix in="SourceAlpha" type="matrix" values="0 0 0 0 0 0 0 0 0 0 0 0 0 0 0 0 0 0 127 0" result="hardAlpha"/>
<feOffset dy="1"/>
<feGaussianBlur stdDeviation="7.5"/>
<feComposite in2="hardAlpha" operator="out"/>
<feColorMatrix type="matrix" values="0 0 0 0 0 0 0 0 0 0 0 0 0 0 0 0 0 0 0.2 0"/>
<feBlend mode="normal" in2="effect1_dropShadow_13_91" result="effect2_dropShadow_13_91"/>
<feBlend mode="normal" in="SourceGraphic" in2="effect2_dropShadow_13_91" result="shape"/>
</filter>
<filter id="filter30_dd_13_91" x="996" y="700" width="110" height="110" filterUnits="userSpaceOnUse" color-interpolation-filters="sRGB">
<feFlood flood-opacity="0" result="BackgroundImageFix"/>
<feColorMatrix in="SourceAlpha" type="matrix" values="0 0 0 0 0 0 0 0 0 0 0 0 0 0 0 0 0 0 127 0" result="hardAlpha"/>
<feOffset dy="2"/>
<feGaussianBlur stdDeviation="5"/>
<feComposite in2="hardAlpha" operator="out"/>
<feColorMatrix type="matrix" values="0 0 0 0 0.898039 0 0 0 0 0.898039 0 0 0 0 0.898039 0 0 0 0.1 0"/>
<feBlend mode="normal" in2="BackgroundImageFix" result="effect1_dropShadow_13_91"/>
<feColorMatrix in="SourceAlpha" type="matrix" values="0 0 0 0 0 0 0 0 0 0 0 0 0 0 0 0 0 0 127 0" result="hardAlpha"/>
<feOffset dy="1"/>
<feGaussianBlur stdDeviation="7.5"/>
<feComposite in2="hardAlpha" operator="out"/>
<feColorMatrix type="matrix" values="0 0 0 0 0 0 0 0 0 0 0 0 0 0 0 0 0 0 0.2 0"/>
<feBlend mode="normal" in2="effect1_dropShadow_13_91" result="effect2_dropShadow_13_91"/>
<feBlend mode="normal" in="SourceGraphic" in2="effect2_dropShadow_13_91" result="shape"/>
</filter>
<filter id="filter31_dd_13_91" x="892" y="700" width="110" height="110" filterUnits="userSpaceOnUse" color-interpolation-filters="sRGB">
<feFlood flood-opacity="0" result="BackgroundImageFix"/>
<feColorMatrix in="SourceAlpha" type="matrix" values="0 0 0 0 0 0 0 0 0 0 0 0 0 0 0 0 0 0 127 0" result="hardAlpha"/>
<feOffset dy="2"/>
<feGaussianBlur stdDeviation="5"/>
<feComposite in2="hardAlpha" operator="out"/>
<feColorMatrix type="matrix" values="0 0 0 0 0.898039 0 0 0 0 0.898039 0 0 0 0 0.898039 0 0 0 0.1 0"/>
<feBlend mode="normal" in2="BackgroundImageFix" result="effect1_dropShadow_13_91"/>
<feColorMatrix in="SourceAlpha" type="matrix" values="0 0 0 0 0 0 0 0 0 0 0 0 0 0 0 0 0 0 127 0" result="hardAlpha"/>
<feOffset dy="1"/>
<feGaussianBlur stdDeviation="7.5"/>
<feComposite in2="hardAlpha" operator="out"/>
<feColorMatrix type="matrix" values="0 0 0 0 0 0 0 0 0 0 0 0 0 0 0 0 0 0 0.2 0"/>
<feBlend mode="normal" in2="effect1_dropShadow_13_91" result="effect2_dropShadow_13_91"/>
<feBlend mode="normal" in="SourceGraphic" in2="effect2_dropShadow_13_91" result="shape"/>
</filter>
<filter id="filter32_dd_13_91" x="788" y="700" width="110" height="110" filterUnits="userSpaceOnUse" color-interpolation-filters="sRGB">
<feFlood flood-opacity="0" result="BackgroundImageFix"/>
<feColorMatrix in="SourceAlpha" type="matrix" values="0 0 0 0 0 0 0 0 0 0 0 0 0 0 0 0 0 0 127 0" result="hardAlpha"/>
<feOffset dy="2"/>
<feGaussianBlur stdDeviation="5"/>
<feComposite in2="hardAlpha" operator="out"/>
<feColorMatrix type="matrix" values="0 0 0 0 0.898039 0 0 0 0 0.898039 0 0 0 0 0.898039 0 0 0 0.1 0"/>
<feBlend mode="normal" in2="BackgroundImageFix" result="effect1_dropShadow_13_91"/>
<feColorMatrix in="SourceAlpha" type="matrix" values="0 0 0 0 0 0 0 0 0 0 0 0 0 0 0 0 0 0 127 0" result="hardAlpha"/>
<feOffset dy="1"/>
<feGaussianBlur stdDeviation="7.5"/>
<feComposite in2="hardAlpha" operator="out"/>
<feColorMatrix type="matrix" values="0 0 0 0 0 0 0 0 0 0 0 0 0 0 0 0 0 0 0.2 0"/>
<feBlend mode="normal" in2="effect1_dropShadow_13_91" result="effect2_dropShadow_13_91"/>
<feBlend mode="normal" in="SourceGraphic" in2="effect2_dropShadow_13_91" result="shape"/>
</filter>
<filter id="filter33_dd_13_91" x="1101" y="908" width="110" height="110" filterUnits="userSpaceOnUse" color-interpolation-filters="sRGB">
<feFlood flood-opacity="0" result="BackgroundImageFix"/>
<feColorMatrix in="SourceAlpha" type="matrix" values="0 0 0 0 0 0 0 0 0 0 0 0 0 0 0 0 0 0 127 0" result="hardAlpha"/>
<feOffset dy="2"/>
<feGaussianBlur stdDeviation="5"/>
<feComposite in2="hardAlpha" operator="out"/>
<feColorMatrix type="matrix" values="0 0 0 0 0.898039 0 0 0 0 0.898039 0 0 0 0 0.898039 0 0 0 0.1 0"/>
<feBlend mode="normal" in2="BackgroundImageFix" result="effect1_dropShadow_13_91"/>
<feColorMatrix in="SourceAlpha" type="matrix" values="0 0 0 0 0 0 0 0 0 0 0 0 0 0 0 0 0 0 127 0" result="hardAlpha"/>
<feOffset dy="1"/>
<feGaussianBlur stdDeviation="7.5"/>
<feComposite in2="hardAlpha" operator="out"/>
<feColorMatrix type="matrix" values="0 0 0 0 0 0 0 0 0 0 0 0 0 0 0 0 0 0 0.2 0"/>
<feBlend mode="normal" in2="effect1_dropShadow_13_91" result="effect2_dropShadow_13_91"/>
<feBlend mode="normal" in="SourceGraphic" in2="effect2_dropShadow_13_91" result="shape"/>
</filter>
<filter id="filter34_dd_13_91" x="1100" y="804" width="110" height="110" filterUnits="userSpaceOnUse" color-interpolation-filters="sRGB">
<feFlood flood-opacity="0" result="BackgroundImageFix"/>
<feColorMatrix in="SourceAlpha" type="matrix" values="0 0 0 0 0 0 0 0 0 0 0 0 0 0 0 0 0 0 127 0" result="hardAlpha"/>
<feOffset dy="2"/>
<feGaussianBlur stdDeviation="5"/>
<feComposite in2="hardAlpha" operator="out"/>
<feColorMatrix type="matrix" values="0 0 0 0 0.898039 0 0 0 0 0.898039 0 0 0 0 0.898039 0 0 0 0.1 0"/>
<feBlend mode="normal" in2="BackgroundImageFix" result="effect1_dropShadow_13_91"/>
<feColorMatrix in="SourceAlpha" type="matrix" values="0 0 0 0 0 0 0 0 0 0 0 0 0 0 0 0 0 0 127 0" result="hardAlpha"/>
<feOffset dy="1"/>
<feGaussianBlur stdDeviation="7.5"/>
<feComposite in2="hardAlpha" operator="out"/>
<feColorMatrix type="matrix" values="0 0 0 0 0 0 0 0 0 0 0 0 0 0 0 0 0 0 0.2 0"/>
<feBlend mode="normal" in2="effect1_dropShadow_13_91" result="effect2_dropShadow_13_91"/>
<feBlend mode="normal" in="SourceGraphic" in2="effect2_dropShadow_13_91" result="shape"/>
</filter>
<filter id="filter35_dd_13_91" x="1100" y="1012" width="110" height="110" filterUnits="userSpaceOnUse" color-interpolation-filters="sRGB">
<feFlood flood-opacity="0" result="BackgroundImageFix"/>
<feColorMatrix in="SourceAlpha" type="matrix" values="0 0 0 0 0 0 0 0 0 0 0 0 0 0 0 0 0 0 127 0" result="hardAlpha"/>
<feOffset dy="2"/>
<feGaussianBlur stdDeviation="5"/>
<feComposite in2="hardAlpha" operator="out"/>
<feColorMatrix type="matrix" values="0 0 0 0 0.898039 0 0 0 0 0.898039 0 0 0 0 0.898039 0 0 0 0.1 0"/>
<feBlend mode="normal" in2="BackgroundImageFix" result="effect1_dropShadow_13_91"/>
<feColorMatrix in="SourceAlpha" type="matrix" values="0 0 0 0 0 0 0 0 0 0 0 0 0 0 0 0 0 0 127 0" result="hardAlpha"/>
<feOffset dy="1"/>
<feGaussianBlur stdDeviation="7.5"/>
<feComposite in2="hardAlpha" operator="out"/>
<feColorMatrix type="matrix" values="0 0 0 0 0 0 0 0 0 0 0 0 0 0 0 0 0 0 0.2 0"/>
<feBlend mode="normal" in2="effect1_dropShadow_13_91" result="effect2_dropShadow_13_91"/>
<feBlend mode="normal" in="SourceGraphic" in2="effect2_dropShadow_13_91" result="shape"/>
</filter>
<clipPath id="clip0_13_91">
<rect width="1328" height="1256" fill="white"/>
</clipPath>
<clipPath id="clip1_13_91">
<rect width="48" height="48" fill="white" transform="translate(450.059 962) rotate(-45)"/>
</clipPath>
<clipPath id="clip2_13_91">
<rect width="48" height="48" fill="white" transform="translate(1121.06 962) rotate(-45)"/>
</clipPath>
</defs>
</svg>
